<?xml version="1.0" encoding="UTF-8" standalone="no"?>
<!DOCTYPE svg PUBLIC "-//W3C//DTD SVG 1.1//EN" "http://www.w3.org/Graphics/SVG/1.1/DTD/svg11.dtd">
<svg width="100%" height="100%" viewBox="0 0 2048 2048" version="1.1" xmlns="http://www.w3.org/2000/svg" xmlns:xlink="http://www.w3.org/1999/xlink" xml:space="preserve" xmlns:serif="http://www.serif.com/" style="fill-rule:evenodd;clip-rule:evenodd;stroke-linejoin:round;stroke-miterlimit:2;">
    <g id="Right-Column---Bottom---bottom" serif:id="Right Column - Bottom - bottom" transform="matrix(1,0,0,1,1292.4,1065.95)">
        <path d="M0,0C0.89,0.006 1.78,0.013 2.696,0.02C5.739,0.043 8.783,0.074 11.826,0.104C14.056,0.123 16.287,0.141 18.517,0.159C24.76,0.211 31.002,0.269 37.245,0.329C43.262,0.385 49.28,0.438 55.298,0.49C68.384,0.605 81.47,0.726 94.556,0.849C110.625,1 126.694,1.144 142.764,1.285C163.982,1.472 185.201,1.663 206.419,1.858C208.795,1.88 211.171,1.902 213.547,1.923C214.722,1.934 215.897,1.945 217.107,1.956C225.425,2.032 233.744,2.106 242.062,2.18C252.329,2.27 262.596,2.364 272.863,2.462C278.185,2.513 283.506,2.562 288.828,2.608C293.759,2.65 298.689,2.696 303.62,2.746C305.412,2.763 307.204,2.779 308.996,2.793C317.581,2.861 326.067,2.987 334.599,4.053C338.182,14.801 336.743,28.183 336.83,39.429C336.843,40.846 336.86,42.262 336.883,43.679C336.913,45.689 336.92,47.699 336.927,49.71C336.937,50.883 336.946,52.057 336.956,53.266C336.779,54.646 336.779,54.646 336.599,56.053C333.019,58.44 330.491,58.331 326.36,58.301C325.615,58.303 324.87,58.306 324.103,58.308C321.592,58.314 319.081,58.305 316.57,58.296C314.765,58.297 312.959,58.299 311.154,58.302C306.201,58.307 301.249,58.299 296.296,58.289C291.016,58.28 285.735,58.283 280.454,58.284C270.229,58.284 260.004,58.272 249.779,58.256C241.549,58.244 233.318,58.235 225.087,58.23C166.487,58.188 107.887,58.052 49.288,57.647C46.277,57.626 43.265,57.606 40.254,57.586C31.797,57.531 23.34,57.471 14.883,57.401C12.376,57.38 9.869,57.362 7.362,57.344C4.006,57.321 0.651,57.291 -2.705,57.259C-3.687,57.253 -4.67,57.247 -5.682,57.241C-6.563,57.232 -7.444,57.222 -8.352,57.212C-9.116,57.205 -9.88,57.199 -10.667,57.192C-12.401,57.053 -12.401,57.053 -13.401,56.053C-13.534,54.241 -13.534,54.241 -13.526,52.053C-13.528,51.332 -13.531,50.61 -13.534,49.866C-13.401,48.053 -13.401,48.053 -12.401,47.053C-12.249,45.613 -12.163,44.165 -12.104,42.717C-12.044,41.336 -12.044,41.336 -11.983,39.927C-11.944,38.926 -11.905,37.925 -11.866,36.893C-11.823,35.874 -11.78,34.854 -11.735,33.804C-11.599,30.533 -11.468,27.262 -11.338,23.991C-11.247,21.779 -11.155,19.568 -11.063,17.356C-10.837,11.922 -10.617,6.488 -10.401,1.053C-7.147,-0.574 -3.573,-0.042 0,0Z" style="fill:rgb(228,212,173);fill-rule:nonzero;"/>
    </g>
    <g id="Right-Column---Bottom---top" serif:id="Right Column - Bottom - top" transform="matrix(1,0,0,1,1479.88,986.812)">
        <path d="M0,0C1.307,0.001 2.614,0.001 3.961,0.002C10.876,0.033 17.691,0.35 24.579,0.936C32.082,1.468 39.606,1.573 47.125,1.75C48.867,1.794 50.61,1.839 52.352,1.883C62.214,2.125 72.072,2.322 81.936,2.063C87.004,1.981 91.289,2.593 96.125,4.188C98.446,7.669 98.139,8.484 97.938,12.5C98.484,21.197 104.613,25.834 110.508,31.582C118.192,39.214 125.179,48.449 125.688,59.625C125.498,62.683 125.225,64.02 123.625,66.688C118.02,70.051 111.61,70.494 105.203,70.602C104.445,70.621 103.687,70.64 102.907,70.661C100.396,70.721 97.886,70.768 95.375,70.813C93.593,70.85 91.811,70.888 90.029,70.925C74.791,71.224 59.552,71.292 44.313,71.313C43.192,71.315 42.071,71.318 40.917,71.321C37.688,71.326 34.459,71.325 31.23,71.32C30.285,71.322 29.34,71.324 28.365,71.326C23.735,71.31 19.182,71.131 14.572,70.686C8.199,70.139 1.885,70.06 -4.508,70.09C-5.71,70.091 -6.912,70.093 -8.151,70.094C-11.419,70.099 -14.687,70.108 -17.955,70.119C-21.426,70.129 -24.896,70.133 -28.366,70.136C-37.942,70.148 -47.518,70.17 -57.094,70.193C-121.465,70.343 -121.465,70.343 -139.962,69.979C-141.405,69.952 -142.848,69.931 -144.291,69.917C-153.205,69.819 -161.665,68.908 -169.875,65.188C-172.681,61.422 -173.096,58.385 -173,53.813C-171.889,46.722 -166.841,41.586 -161.313,37.375C-154.59,31.864 -151.838,23.626 -150.813,15.25C-150.318,11.315 -150.014,9.409 -147.875,6C-139.522,0.954 -129.139,1.94 -119.701,2.037C-117.124,2.063 -114.548,2.076 -111.97,2.085C-105.549,2.112 -99.128,2.159 -92.707,2.208C-86.431,2.255 -80.155,2.292 -73.879,2.313C-72.994,2.315 -72.11,2.318 -71.199,2.322C-55.849,2.354 -40.612,1.645 -25.3,0.646C-16.852,0.098 -8.464,-0.085 0,0Z" style="fill:rgb(228,212,174);fill-rule:nonzero;"/>
    </g>
    <g id="Right-Column" serif:id="Right Column" transform="matrix(1,0,0,1,1526.6,322.982)">
        <path d="M0,0C6.28,-0.03 12.56,-0.054 18.84,-0.066C20.631,-0.07 22.422,-0.075 24.212,-0.083C26.596,-0.092 28.981,-0.095 31.365,-0.095C33.316,-0.099 33.316,-0.099 35.306,-0.103C38.398,0.018 38.398,0.018 41.398,1.018C42.085,13.892 42.085,13.892 39.773,17.705C37.074,20.333 34.956,20.95 31.398,22.018C31.406,23.268 31.414,24.519 31.423,25.808C31.796,80.959 32.169,136.111 32.542,191.263C32.547,192.098 32.553,192.934 32.559,193.795C32.681,211.961 32.804,230.127 32.926,248.293C32.986,257.202 33.046,266.111 33.106,275.021C33.112,275.907 33.118,276.794 33.125,277.707C33.318,306.412 33.512,335.117 33.707,363.822C33.906,393.334 34.106,422.847 34.304,452.36C34.333,456.534 34.361,460.708 34.389,464.882C34.394,465.704 34.4,466.525 34.406,467.372C34.494,480.563 34.584,493.755 34.673,506.947C34.763,520.229 34.853,533.51 34.942,546.792C34.995,554.67 35.048,562.548 35.102,570.427C35.142,576.33 35.182,582.234 35.221,588.138C35.237,590.511 35.253,592.884 35.27,595.257C35.37,609.844 35.417,624.43 35.398,639.018C36.35,639.154 37.303,639.291 38.284,639.432C41.533,640.043 42.492,640.411 44.398,643.018C45.891,647.497 46.118,652.01 44.523,656.455C43.398,658.018 43.398,658.018 41.398,659.018C39.088,659.115 36.775,659.144 34.463,659.145C33.741,659.146 33.018,659.148 32.274,659.15C29.838,659.154 27.402,659.15 24.966,659.147C23.222,659.149 21.479,659.15 19.735,659.153C14.974,659.157 10.213,659.155 5.451,659.152C0.426,659.15 -4.6,659.152 -9.626,659.154C-18.118,659.155 -26.61,659.153 -35.102,659.148C-43.727,659.143 -52.351,659.143 -60.975,659.148C-153.354,659.199 -153.354,659.199 -192.602,658.018C-195.556,652.346 -195.896,650.186 -194.602,644.018C-193.19,640.015 -191.274,639.254 -187.547,637.456C-183.803,634.902 -182.752,633.649 -181.696,629.179C-181.255,624.126 -181.389,619.074 -181.495,614.008C-181.499,612.08 -181.497,610.151 -181.491,608.223C-181.486,604.178 -181.508,600.135 -181.552,596.091C-181.61,590.321 -181.581,584.555 -181.52,578.785C-181.443,571.081 -181.388,563.377 -181.362,555.673C-181.357,554.164 -181.357,554.164 -181.352,552.625C-181.345,550.545 -181.339,548.466 -181.332,546.387C-181.313,540.8 -181.29,535.212 -181.267,529.625C-181.227,519.979 -181.191,510.332 -181.157,500.686C-181.107,486.639 -181.052,472.593 -180.995,458.547C-180.903,435.611 -180.814,412.676 -180.727,389.74C-180.724,388.716 -180.724,388.716 -180.72,387.671C-180.696,381.452 -180.673,375.233 -180.649,369.014C-180.592,353.904 -180.535,338.794 -180.477,323.684C-180.475,323.009 -180.472,322.334 -180.47,321.638C-180.41,306.097 -180.351,290.557 -180.289,275.016C-180.286,274.355 -180.284,273.693 -180.281,273.012C-180.252,265.734 -180.223,258.456 -180.194,251.178C-180.143,238.461 -180.094,225.745 -180.048,213.028C-179.822,150.354 -179.392,87.688 -178.602,25.018C-179.699,24.877 -180.796,24.737 -181.927,24.592C-185.702,24.002 -187.676,23.443 -190.602,21.018C-191.915,17.83 -191.915,17.83 -192.602,15.018L-194.602,15.018C-194.684,13.415 -194.742,11.81 -194.79,10.205C-194.825,9.312 -194.86,8.419 -194.895,7.498C-194.602,5.018 -194.602,5.018 -193.604,3.394C-190.429,1.211 -187.009,1.547 -183.284,1.526C-181.982,1.501 -181.982,1.501 -180.654,1.476C-177.707,1.425 -174.761,1.395 -171.813,1.366C-169.682,1.334 -167.551,1.301 -165.419,1.268C-158.147,1.16 -150.875,1.088 -143.602,1.018C-141.601,0.997 -139.6,0.977 -137.599,0.956C-118.455,0.761 -99.311,0.623 -80.166,0.5C-74.761,0.466 -69.355,0.429 -63.949,0.39C-42.633,0.238 -21.316,0.106 0,0ZM-141.602,62.018C-142.735,65.129 -142.725,68.106 -142.719,71.395C-142.719,72.496 -142.72,73.598 -142.72,74.732C-142.716,75.945 -142.711,77.158 -142.707,78.408C-142.706,79.701 -142.705,80.995 -142.704,82.327C-142.701,85.944 -142.692,89.561 -142.682,93.177C-142.672,97.123 -142.668,101.069 -142.664,105.015C-142.655,111.969 -142.642,118.923 -142.626,125.876C-142.603,136.246 -142.587,146.616 -142.571,156.986C-142.532,182.657 -142.48,208.328 -142.426,233.998C-142.419,237.507 -142.412,241.015 -142.404,244.524C-142.358,266.528 -142.311,288.532 -142.263,310.536C-142.252,315.558 -142.241,320.58 -142.23,325.602C-142.227,326.849 -142.225,328.096 -142.222,329.381C-142.178,349.68 -142.137,369.98 -142.098,390.279C-142.057,411.313 -142.013,432.347 -141.966,453.382C-141.939,465.116 -141.914,476.85 -141.893,488.584C-141.876,498.543 -141.855,508.502 -141.83,518.461C-141.817,523.515 -141.806,528.57 -141.799,533.624C-141.782,545.2 -141.734,556.775 -141.626,568.351C-141.61,570.176 -141.595,572.001 -141.581,573.826C-141.538,579.481 -141.475,585.135 -141.38,590.789C-141.353,592.56 -141.333,594.33 -141.32,596.101C-141.3,598.534 -141.256,600.965 -141.205,603.398C-141.204,604.115 -141.203,604.831 -141.203,605.57C-141.106,608.932 -140.82,610.735 -138.748,613.435C-135.946,615.502 -134.079,615.947 -130.602,616.018C-127.073,614.414 -125.775,613.276 -123.602,610.018C-123.302,607.238 -123.302,607.238 -123.354,604.031C-123.347,602.14 -123.347,602.14 -123.34,600.212C-123.345,598.805 -123.35,597.398 -123.355,595.99C-123.354,594.5 -123.351,593.009 -123.348,591.519C-123.342,587.407 -123.348,583.295 -123.356,579.183C-123.362,574.745 -123.357,570.306 -123.354,565.867C-123.349,557.122 -123.354,548.376 -123.364,539.631C-123.374,529.295 -123.374,518.96 -123.373,508.624C-123.373,489.982 -123.382,471.341 -123.397,452.699C-123.41,434.981 -123.418,417.262 -123.417,399.544C-123.417,397.383 -123.417,395.222 -123.417,393.061C-123.417,391.992 -123.417,390.924 -123.417,389.823L-123.417,383.36C-123.416,329.579 -123.475,275.798 -123.602,222.018C-123.605,221.011 -123.607,220.003 -123.61,218.966C-123.668,193.893 -123.745,168.821 -123.866,143.749C-123.87,142.872 -123.874,141.994 -123.879,141.089C-123.883,140.217 -123.887,139.345 -123.892,138.447C-123.92,132.383 -123.941,126.32 -123.959,120.256C-123.981,113.019 -124.013,105.782 -124.059,98.545C-124.082,94.9 -124.1,91.255 -124.106,87.61C-124.112,83.692 -124.141,79.775 -124.173,75.857C-124.171,74.717 -124.17,73.577 -124.168,72.403C-124.18,71.361 -124.192,70.32 -124.205,69.247C-124.209,68.351 -124.214,67.455 -124.218,66.532C-124.69,63.447 -125.81,61.55 -127.602,59.018C-133.371,55.11 -137.052,57.569 -141.602,62.018ZM-81.602,61.018C-82.791,63.395 -82.756,64.901 -82.803,67.556C-82.822,68.519 -82.841,69.481 -82.86,70.473C-82.876,71.539 -82.892,72.605 -82.908,73.703C-82.928,74.83 -82.948,75.958 -82.968,77.119C-83.033,80.936 -83.09,84.752 -83.145,88.569C-83.166,89.923 -83.187,91.277 -83.208,92.631C-83.744,127.357 -83.822,162.084 -83.9,196.813C-83.921,206.395 -83.947,215.977 -83.974,225.558C-84.021,242.796 -84.064,260.033 -84.105,277.271C-84.144,293.654 -84.186,310.038 -84.23,326.421C-84.236,328.444 -84.241,330.466 -84.247,332.489C-84.255,335.516 -84.263,338.542 -84.271,341.568C-84.344,368.287 -84.414,395.006 -84.468,421.725C-84.47,422.678 -84.472,423.632 -84.474,424.615C-84.493,434.071 -84.511,443.527 -84.529,452.983C-84.567,473.021 -84.615,493.059 -84.686,513.096C-84.729,525.192 -84.763,537.287 -84.787,549.382C-84.802,556.188 -84.821,562.994 -84.854,569.8C-84.884,575.955 -84.9,582.11 -84.904,588.265C-84.909,590.474 -84.918,592.684 -84.933,594.893C-84.952,597.867 -84.954,600.84 -84.95,603.814C-84.96,604.669 -84.97,605.525 -84.981,606.406C-84.951,611.341 -84.382,614.764 -81.602,619.018C-78.09,621.36 -76.738,621.514 -72.602,621.018C-69.265,618.867 -67.868,617.814 -66.602,614.018C-66.5,612.171 -66.456,610.321 -66.444,608.471C-66.434,607.302 -66.425,606.133 -66.415,604.928C-66.406,602.982 -66.406,602.982 -66.397,600.996C-66.388,599.598 -66.378,598.201 -66.367,596.803C-66.34,592.899 -66.319,588.994 -66.299,585.089C-66.281,581.651 -66.26,578.214 -66.239,574.777C-66.167,563.009 -66.109,551.24 -66.055,539.472C-66.04,536.345 -66.025,533.218 -66.01,530.091C-65.826,491.734 -65.702,453.376 -65.602,415.018C-65.6,414.181 -65.598,413.345 -65.596,412.483C-65.467,362.743 -65.373,313.004 -65.328,263.264C-65.324,259.223 -65.32,255.182 -65.316,251.141C-65.315,249.642 -65.315,249.642 -65.314,248.113C-65.299,232.913 -65.274,217.713 -65.243,202.513C-65.208,184.999 -65.187,167.484 -65.185,149.97C-65.183,140.871 -65.175,131.773 -65.149,122.674C-65.128,115.042 -65.119,107.41 -65.129,99.778C-65.134,95.909 -65.132,92.04 -65.112,88.17C-65.091,83.995 -65.102,79.819 -65.115,75.643C-65.104,74.424 -65.093,73.205 -65.082,71.949C-65.088,65.59 -65.088,65.59 -67.418,59.795C-72.673,55.519 -77.091,56.374 -81.602,61.018ZM-19.602,62.018C-20.353,65.071 -20.318,68.054 -20.301,71.186C-20.316,72.151 -20.33,73.116 -20.345,74.111C-20.388,77.476 -20.394,80.84 -20.4,84.206C-20.423,86.739 -20.447,89.272 -20.472,91.804C-20.542,99.426 -20.567,107.047 -20.587,114.668C-20.602,120.351 -20.626,126.034 -20.65,131.718C-20.781,163.783 -20.817,195.848 -20.837,227.913C-20.841,234.723 -20.846,241.533 -20.852,248.343C-20.869,271.74 -20.884,295.137 -20.892,318.534C-20.892,319.988 -20.893,321.442 -20.893,322.896C-20.894,323.617 -20.894,324.338 -20.894,325.081C-20.895,328.731 -20.896,332.382 -20.898,336.033C-20.898,336.757 -20.898,337.481 -20.898,338.228C-20.906,361.862 -20.93,385.496 -20.962,409.131C-20.996,434.243 -21.016,459.354 -21.02,484.466C-21.02,487.217 -21.02,489.968 -21.021,492.72C-21.021,493.397 -21.021,494.074 -21.021,494.772C-21.024,505.656 -21.039,516.54 -21.06,527.424C-21.08,538.324 -21.085,549.223 -21.076,560.122C-21.071,566.023 -21.073,571.924 -21.093,577.824C-21.11,583.219 -21.11,588.613 -21.094,594.007C-21.091,595.963 -21.096,597.918 -21.108,599.873C-21.123,602.522 -21.113,605.17 -21.097,607.818C-21.113,608.967 -21.113,608.967 -21.128,610.14C-21.081,613.755 -20.701,615.859 -18.782,618.96C-16.645,621.267 -16.645,621.267 -13.227,622.143C-9.459,622.31 -9.459,622.31 -6.227,619.955C-1.611,614.789 -2.456,608.328 -2.465,601.72C-2.463,600.787 -2.46,599.855 -2.457,598.894C-2.45,595.759 -2.449,592.623 -2.449,589.488C-2.445,587.222 -2.44,584.956 -2.435,582.689C-2.423,576.453 -2.418,570.217 -2.413,563.981C-2.408,557.949 -2.398,551.917 -2.388,545.885C-2.363,529.729 -2.347,513.572 -2.335,497.416C-2.33,492.066 -2.326,486.717 -2.321,481.367C-2.296,452.925 -2.274,424.484 -2.261,396.042C-2.258,389.455 -2.255,382.869 -2.252,376.282C-2.252,375.054 -2.252,375.054 -2.251,373.802C-2.239,347.25 -2.208,320.697 -2.166,294.145C-2.124,266.851 -2.097,239.557 -2.092,212.263C-2.091,208.411 -2.09,204.559 -2.089,200.707C-2.089,199.569 -2.089,199.569 -2.089,198.409C-2.085,186.194 -2.065,173.979 -2.038,161.765C-2.012,149.497 -2.004,137.229 -2.015,124.961C-2.021,118.311 -2.018,111.662 -1.993,105.012C-1.971,98.931 -1.971,92.85 -1.99,86.769C-1.993,84.563 -1.987,82.357 -1.972,80.151C-1.953,77.164 -1.965,74.178 -1.984,71.19C-1.972,70.324 -1.959,69.458 -1.946,68.566C-2.008,64.248 -2.217,62.523 -4.922,58.984C-7.535,56.765 -7.535,56.765 -11.102,56.393C-15.617,57.199 -16.825,58.393 -19.602,62.018Z" style="fill:rgb(228,212,174);fill-rule:nonzero;"/>
    </g>
    <g id="Right-Column---Top---bottom" serif:id="Right Column - Top - bottom" transform="matrix(1,0,0,1,1501.56,247.871)">
        <path d="M0,0C1.712,-0.005 1.712,-0.005 3.459,-0.009C5.253,-0.006 5.253,-0.006 7.083,-0.003C8.998,-0.006 8.998,-0.006 10.952,-0.008C14.353,-0.011 17.755,-0.007 21.156,0C23.26,0.004 25.363,0.007 27.467,0.01C59.375,0.057 59.375,0.057 74.188,0.442C75.918,0.475 75.918,0.475 77.684,0.51C84.135,0.729 90.529,1.329 96.438,4.129C99.333,8.472 99.086,12.036 98.438,17.129C95.474,28.191 86.68,36.992 78.692,44.821C74.181,49.317 71.987,52.008 71.626,58.504C71.661,59.482 71.695,60.459 71.731,61.465C71.438,64.129 71.438,64.129 69.802,66.418C64.261,70.43 56.74,69.205 50.188,69.129C39.324,69.067 28.484,69.248 17.626,69.567C16.914,69.587 16.201,69.606 15.468,69.627C8.588,69.82 1.732,70.07 -5.128,70.653C-12.317,71.243 -19.476,71.313 -26.687,71.317C-27.909,71.329 -29.131,71.341 -30.39,71.354C-38.301,71.366 -46.144,71.051 -54.039,70.535C-69.543,69.522 -84.956,68.961 -100.495,69.04C-101.376,69.044 -102.257,69.048 -103.164,69.052C-110.365,69.089 -117.565,69.149 -124.766,69.219C-130.213,69.272 -135.66,69.313 -141.107,69.336C-143.604,69.352 -146.101,69.384 -148.598,69.418C-166.012,69.556 -166.012,69.556 -173.562,66.129C-176.556,62.886 -176.974,60.489 -177.374,56.129C-178.676,46.647 -182.028,38.49 -189.753,32.606C-194.59,28.657 -198.702,23.79 -199.687,17.504C-199.783,12.932 -199.368,9.895 -196.562,6.129C-187.651,2.091 -178.508,1.474 -168.874,1.379C-167.351,1.351 -165.828,1.322 -164.305,1.292C-136.732,0.815 -109.138,1.065 -81.562,1.129C-72.018,1.152 -62.475,1.172 -52.932,1.183C-49.495,1.187 -46.058,1.193 -42.62,1.205C-38.812,1.217 -35.003,1.222 -31.195,1.227C-30.088,1.232 -28.981,1.237 -27.841,1.243C-21.582,1.243 -15.43,0.93 -9.198,0.357C-6.126,0.092 -3.082,0.002 0,0Z" style="fill:rgb(228,212,174);fill-rule:nonzero;"/>
    </g>
    <g id="Right-Column---Top---top" serif:id="Right Column - Top - top" transform="matrix(1,0,0,1,1516.01,181.821)">
        <path d="M0,0C8.232,-0.006 16.464,-0.017 24.696,-0.03C34.823,-0.045 44.949,-0.053 55.076,-0.051C60.314,-0.05 65.552,-0.053 70.789,-0.063C75.624,-0.073 80.458,-0.073 85.293,-0.066C87.056,-0.065 88.819,-0.067 90.582,-0.073C92.973,-0.081 95.363,-0.076 97.754,-0.069C98.451,-0.074 99.149,-0.079 99.867,-0.084C103.48,-0.058 104.892,0.111 107.993,2.179C108.35,4.966 108.35,4.966 108.322,8.522C108.317,9.824 108.313,11.126 108.308,12.467C108.287,13.871 108.266,15.275 108.243,16.679C108.231,18.096 108.219,19.513 108.208,20.93C107.94,48.338 107.94,48.338 105.993,54.179C98.348,55.107 90.784,55.355 83.087,55.413C81.186,55.432 81.186,55.432 79.246,55.453C75.752,55.489 72.257,55.519 68.763,55.548C64.984,55.581 61.206,55.619 57.427,55.657C50.031,55.729 42.635,55.797 35.24,55.863C26.609,55.94 17.978,56.022 9.347,56.105C-6.072,56.252 -21.49,56.395 -36.908,56.536C-51.829,56.672 -66.75,56.81 -81.671,56.952C-82.588,56.961 -83.506,56.969 -84.451,56.978C-88.14,57.013 -91.829,57.048 -95.518,57.083C-110.647,57.227 -125.776,57.368 -140.905,57.509C-144.338,57.541 -147.771,57.574 -151.205,57.606C-160.238,57.69 -169.27,57.774 -178.303,57.857C-182.034,57.891 -185.766,57.925 -189.497,57.96C-198.333,58.043 -207.17,58.116 -216.007,58.179C-217.102,58.188 -218.197,58.196 -219.326,58.205C-222.321,58.228 -225.316,58.244 -228.311,58.257C-229.178,58.265 -230.045,58.272 -230.938,58.28C-236.776,58.294 -236.776,58.294 -239.007,57.179C-239.029,56.605 -239.052,56.031 -239.076,55.439C-239.313,49.486 -239.558,43.533 -239.806,37.58C-239.898,35.356 -239.988,33.132 -240.077,30.907C-240.204,27.718 -240.337,24.528 -240.471,21.339C-240.51,20.338 -240.549,19.337 -240.588,18.305C-240.628,17.385 -240.668,16.464 -240.709,15.515C-240.743,14.7 -240.776,13.885 -240.81,13.045C-240.81,11.165 -240.81,11.165 -242.007,10.179C-242.139,8.366 -242.139,8.366 -242.132,6.179C-242.134,5.457 -242.137,4.735 -242.139,3.991C-242.007,2.179 -242.007,2.179 -241.007,1.179C-239.66,1.071 -238.308,1.032 -236.958,1.02C-236.076,1.011 -235.195,1.001 -234.287,0.991C-233.305,0.985 -232.323,0.979 -231.311,0.973C-230.271,0.963 -229.232,0.954 -228.162,0.943C-224.617,0.911 -221.071,0.887 -217.526,0.862C-214.951,0.841 -212.377,0.82 -209.802,0.799C-201.897,0.735 -193.991,0.682 -186.086,0.631C-183.076,0.611 -180.067,0.59 -177.057,0.57C-118.039,0.163 -59.02,0.041 0,0Z" style="fill:rgb(228,212,173);fill-rule:nonzero;"/>
    </g>
    <g id="Middle-Column---Bottom---bottom" serif:id="Middle Column - Bottom - bottom" transform="matrix(1,0,0,1,863.401,1065.95)">
        <path d="M0,0C0.89,0.006 1.78,0.013 2.696,0.02C5.739,0.043 8.783,0.074 11.826,0.104C14.056,0.123 16.287,0.141 18.517,0.159C24.76,0.211 31.002,0.269 37.245,0.329C43.262,0.385 49.28,0.438 55.298,0.49C68.384,0.605 81.47,0.726 94.556,0.849C110.625,1 126.694,1.144 142.764,1.285C163.982,1.472 185.201,1.663 206.419,1.858C208.795,1.88 211.171,1.902 213.547,1.923C214.722,1.934 215.897,1.945 217.107,1.956C225.425,2.032 233.744,2.106 242.062,2.18C252.329,2.27 262.596,2.364 272.863,2.462C278.185,2.513 283.506,2.562 288.828,2.608C293.759,2.65 298.689,2.696 303.62,2.746C305.412,2.763 307.204,2.779 308.996,2.793C317.581,2.861 326.067,2.987 334.599,4.053C338.182,14.801 336.743,28.183 336.83,39.429C336.843,40.846 336.86,42.262 336.883,43.679C336.913,45.689 336.92,47.699 336.927,49.71C336.937,50.883 336.946,52.057 336.956,53.266C336.779,54.646 336.779,54.646 336.599,56.053C333.019,58.44 330.491,58.331 326.36,58.301C325.615,58.303 324.87,58.306 324.103,58.308C321.592,58.314 319.081,58.305 316.57,58.296C314.765,58.297 312.959,58.299 311.154,58.302C306.201,58.307 301.249,58.299 296.296,58.289C291.016,58.28 285.735,58.283 280.454,58.284C270.229,58.284 260.004,58.272 249.779,58.256C241.549,58.244 233.318,58.235 225.087,58.23C166.487,58.188 107.887,58.052 49.288,57.647C46.277,57.626 43.265,57.606 40.254,57.586C31.797,57.531 23.34,57.471 14.883,57.401C12.376,57.38 9.869,57.362 7.362,57.344C4.006,57.321 0.651,57.291 -2.705,57.259C-3.687,57.253 -4.67,57.247 -5.682,57.241C-6.563,57.232 -7.444,57.222 -8.352,57.212C-9.116,57.205 -9.88,57.199 -10.667,57.192C-12.401,57.053 -12.401,57.053 -13.401,56.053C-13.534,54.241 -13.534,54.241 -13.526,52.053C-13.528,51.332 -13.531,50.61 -13.534,49.866C-13.401,48.053 -13.401,48.053 -12.401,47.053C-12.249,45.613 -12.163,44.165 -12.104,42.717C-12.044,41.336 -12.044,41.336 -11.983,39.927C-11.944,38.926 -11.905,37.925 -11.866,36.893C-11.823,35.874 -11.78,34.854 -11.735,33.804C-11.599,30.533 -11.468,27.262 -11.338,23.991C-11.247,21.779 -11.155,19.568 -11.063,17.356C-10.837,11.922 -10.617,6.488 -10.401,1.053C-7.147,-0.574 -3.573,-0.042 0,0Z" style="fill:rgb(228,212,173);fill-rule:nonzero;"/>
    </g>
    <g id="Middle-Column---Bottom---top" serif:id="Middle Column - Bottom - top" transform="matrix(1,0,0,1,1050.88,986.812)">
        <path d="M0,0C1.307,0.001 2.614,0.001 3.961,0.002C10.876,0.033 17.691,0.35 24.579,0.936C32.082,1.468 39.606,1.573 47.125,1.75C48.867,1.794 50.61,1.839 52.352,1.883C62.214,2.125 72.072,2.322 81.936,2.063C87.004,1.981 91.289,2.593 96.125,4.188C98.446,7.669 98.139,8.484 97.938,12.5C98.484,21.197 104.613,25.834 110.508,31.582C118.192,39.214 125.179,48.449 125.688,59.625C125.498,62.683 125.225,64.02 123.625,66.688C118.02,70.051 111.61,70.494 105.203,70.602C104.445,70.621 103.687,70.64 102.907,70.661C100.396,70.721 97.886,70.768 95.375,70.813C93.593,70.85 91.811,70.888 90.029,70.925C74.791,71.224 59.552,71.292 44.313,71.313C43.192,71.315 42.071,71.318 40.917,71.321C37.688,71.326 34.459,71.325 31.23,71.32C30.285,71.322 29.34,71.324 28.365,71.326C23.735,71.31 19.182,71.131 14.572,70.686C8.199,70.139 1.885,70.06 -4.508,70.09C-5.71,70.091 -6.912,70.093 -8.151,70.094C-11.419,70.099 -14.687,70.108 -17.955,70.119C-21.426,70.129 -24.896,70.133 -28.366,70.136C-37.942,70.148 -47.518,70.17 -57.094,70.193C-121.465,70.343 -121.465,70.343 -139.962,69.979C-141.405,69.952 -142.848,69.931 -144.291,69.917C-153.205,69.819 -161.665,68.908 -169.875,65.188C-172.681,61.422 -173.096,58.385 -173,53.813C-171.889,46.722 -166.841,41.586 -161.313,37.375C-154.59,31.864 -151.838,23.626 -150.813,15.25C-150.318,11.315 -150.014,9.409 -147.875,6C-139.522,0.954 -129.139,1.94 -119.701,2.037C-117.124,2.063 -114.548,2.076 -111.97,2.085C-105.549,2.112 -99.128,2.159 -92.707,2.208C-86.431,2.255 -80.155,2.292 -73.879,2.313C-72.994,2.315 -72.11,2.318 -71.199,2.322C-55.849,2.354 -40.612,1.645 -25.3,0.646C-16.852,0.098 -8.464,-0.085 0,0Z" style="fill:rgb(228,212,174);fill-rule:nonzero;"/>
    </g>
    <g id="Middle-Column" serif:id="Middle Column" transform="matrix(1,0,0,1,1097.6,325.982)">
        <path d="M0,0C6.28,-0.03 12.56,-0.054 18.84,-0.066C20.631,-0.07 22.422,-0.075 24.212,-0.083C26.596,-0.092 28.981,-0.095 31.365,-0.095C33.316,-0.099 33.316,-0.099 35.306,-0.103C38.398,0.018 38.398,0.018 41.398,1.018C42.085,13.892 42.085,13.892 39.773,17.705C37.074,20.333 34.956,20.95 31.398,22.018C31.406,23.268 31.414,24.519 31.423,25.808C31.796,80.959 32.169,136.111 32.542,191.263C32.547,192.098 32.553,192.934 32.559,193.795C32.681,211.961 32.804,230.127 32.926,248.293C32.986,257.202 33.046,266.111 33.106,275.021C33.112,275.907 33.118,276.794 33.125,277.707C33.318,306.412 33.512,335.117 33.707,363.822C33.906,393.334 34.106,422.847 34.304,452.36C34.333,456.534 34.361,460.708 34.389,464.882C34.394,465.704 34.4,466.525 34.406,467.372C34.494,480.563 34.584,493.755 34.673,506.947C34.763,520.229 34.853,533.51 34.942,546.792C34.995,554.67 35.048,562.548 35.102,570.427C35.142,576.33 35.182,582.234 35.221,588.138C35.237,590.511 35.253,592.884 35.27,595.257C35.37,609.844 35.417,624.43 35.398,639.018C36.35,639.154 37.303,639.291 38.284,639.432C41.533,640.043 42.492,640.411 44.398,643.018C45.891,647.497 46.118,652.01 44.523,656.455C43.398,658.018 43.398,658.018 41.398,659.018C39.088,659.115 36.775,659.144 34.463,659.145C33.741,659.146 33.018,659.148 32.274,659.15C29.838,659.154 27.402,659.15 24.966,659.147C23.222,659.149 21.479,659.15 19.735,659.153C14.974,659.157 10.213,659.155 5.451,659.152C0.426,659.15 -4.6,659.152 -9.626,659.154C-18.118,659.155 -26.61,659.153 -35.102,659.148C-43.727,659.143 -52.351,659.143 -60.975,659.148C-153.354,659.199 -153.354,659.199 -192.602,658.018C-195.556,652.346 -195.896,650.186 -194.602,644.018C-193.19,640.015 -191.274,639.254 -187.547,637.456C-183.803,634.902 -182.752,633.649 -181.696,629.179C-181.255,624.126 -181.389,619.074 -181.495,614.008C-181.499,612.08 -181.497,610.151 -181.491,608.223C-181.486,604.178 -181.508,600.135 -181.552,596.091C-181.61,590.321 -181.581,584.555 -181.52,578.785C-181.443,571.081 -181.388,563.377 -181.362,555.673C-181.357,554.164 -181.357,554.164 -181.352,552.625C-181.345,550.545 -181.339,548.466 -181.332,546.387C-181.313,540.8 -181.29,535.212 -181.267,529.625C-181.227,519.979 -181.191,510.332 -181.157,500.686C-181.107,486.639 -181.052,472.593 -180.995,458.547C-180.903,435.611 -180.814,412.676 -180.727,389.74C-180.724,388.716 -180.724,388.716 -180.72,387.671C-180.696,381.452 -180.673,375.233 -180.649,369.014C-180.592,353.904 -180.535,338.794 -180.477,323.684C-180.475,323.009 -180.472,322.334 -180.47,321.638C-180.41,306.097 -180.351,290.557 -180.289,275.016C-180.286,274.355 -180.284,273.693 -180.281,273.012C-180.252,265.734 -180.223,258.456 -180.194,251.178C-180.143,238.461 -180.094,225.745 -180.048,213.028C-179.822,150.354 -179.392,87.688 -178.602,25.018C-179.699,24.877 -180.796,24.737 -181.927,24.592C-185.702,24.002 -187.676,23.443 -190.602,21.018C-191.915,17.83 -191.915,17.83 -192.602,15.018L-194.602,15.018C-194.684,13.415 -194.742,11.81 -194.79,10.205C-194.825,9.312 -194.86,8.419 -194.895,7.498C-194.602,5.018 -194.602,5.018 -193.604,3.394C-190.429,1.211 -187.009,1.547 -183.284,1.526C-181.982,1.501 -181.982,1.501 -180.654,1.476C-177.707,1.425 -174.761,1.395 -171.813,1.366C-169.682,1.334 -167.551,1.301 -165.419,1.268C-158.147,1.16 -150.875,1.088 -143.602,1.018C-141.601,0.997 -139.6,0.977 -137.599,0.956C-118.455,0.761 -99.311,0.623 -80.166,0.5C-74.761,0.466 -69.355,0.429 -63.949,0.39C-42.633,0.238 -21.316,0.106 0,0ZM-141.602,62.018C-142.735,65.129 -142.725,68.106 -142.719,71.395C-142.719,72.496 -142.72,73.598 -142.72,74.732C-142.716,75.945 -142.711,77.158 -142.707,78.408C-142.706,79.701 -142.705,80.995 -142.704,82.327C-142.701,85.944 -142.692,89.561 -142.682,93.177C-142.672,97.123 -142.668,101.069 -142.664,105.015C-142.655,111.969 -142.642,118.923 -142.626,125.876C-142.603,136.246 -142.587,146.616 -142.571,156.986C-142.532,182.657 -142.48,208.328 -142.426,233.998C-142.419,237.507 -142.412,241.015 -142.404,244.524C-142.358,266.528 -142.311,288.532 -142.263,310.536C-142.252,315.558 -142.241,320.58 -142.23,325.602C-142.227,326.849 -142.225,328.096 -142.222,329.381C-142.178,349.68 -142.137,369.98 -142.098,390.279C-142.057,411.313 -142.013,432.347 -141.966,453.382C-141.939,465.116 -141.914,476.85 -141.893,488.584C-141.876,498.543 -141.855,508.502 -141.83,518.461C-141.817,523.515 -141.806,528.57 -141.799,533.624C-141.782,545.2 -141.734,556.775 -141.626,568.351C-141.61,570.176 -141.595,572.001 -141.581,573.826C-141.538,579.481 -141.475,585.135 -141.38,590.789C-141.353,592.56 -141.333,594.33 -141.32,596.101C-141.3,598.534 -141.256,600.965 -141.205,603.398C-141.204,604.115 -141.203,604.831 -141.203,605.57C-141.106,608.932 -140.82,610.735 -138.748,613.435C-135.946,615.502 -134.079,615.947 -130.602,616.018C-127.073,614.414 -125.775,613.276 -123.602,610.018C-123.302,607.238 -123.302,607.238 -123.354,604.031C-123.347,602.14 -123.347,602.14 -123.34,600.212C-123.345,598.805 -123.35,597.398 -123.355,595.99C-123.354,594.5 -123.351,593.009 -123.348,591.519C-123.342,587.407 -123.348,583.295 -123.356,579.183C-123.362,574.745 -123.357,570.306 -123.354,565.867C-123.349,557.122 -123.354,548.376 -123.364,539.631C-123.374,529.295 -123.374,518.96 -123.373,508.624C-123.373,489.982 -123.382,471.341 -123.397,452.699C-123.41,434.981 -123.418,417.262 -123.417,399.544C-123.417,397.383 -123.417,395.222 -123.417,393.061C-123.417,391.992 -123.417,390.924 -123.417,389.823L-123.417,383.36C-123.416,329.579 -123.475,275.798 -123.602,222.018C-123.605,221.011 -123.607,220.003 -123.61,218.966C-123.668,193.893 -123.745,168.821 -123.866,143.749C-123.87,142.872 -123.874,141.994 -123.879,141.089C-123.883,140.217 -123.887,139.345 -123.892,138.447C-123.92,132.383 -123.941,126.32 -123.959,120.256C-123.981,113.019 -124.013,105.782 -124.059,98.545C-124.082,94.9 -124.1,91.255 -124.106,87.61C-124.112,83.692 -124.141,79.775 -124.173,75.857C-124.171,74.717 -124.17,73.577 -124.168,72.403C-124.18,71.361 -124.192,70.32 -124.205,69.247C-124.209,68.351 -124.214,67.455 -124.218,66.532C-124.69,63.447 -125.81,61.55 -127.602,59.018C-133.371,55.11 -137.052,57.569 -141.602,62.018ZM-81.602,61.018C-82.791,63.395 -82.756,64.901 -82.803,67.556C-82.822,68.519 -82.841,69.481 -82.86,70.473C-82.876,71.539 -82.892,72.605 -82.908,73.703C-82.928,74.83 -82.948,75.958 -82.968,77.119C-83.033,80.936 -83.09,84.752 -83.145,88.569C-83.166,89.923 -83.187,91.277 -83.208,92.631C-83.744,127.357 -83.822,162.084 -83.9,196.813C-83.921,206.395 -83.947,215.977 -83.974,225.558C-84.021,242.796 -84.064,260.033 -84.105,277.271C-84.144,293.654 -84.186,310.038 -84.23,326.421C-84.236,328.444 -84.241,330.466 -84.247,332.489C-84.255,335.516 -84.263,338.542 -84.271,341.568C-84.344,368.287 -84.414,395.006 -84.468,421.725C-84.47,422.678 -84.472,423.632 -84.474,424.615C-84.493,434.071 -84.511,443.527 -84.529,452.983C-84.567,473.021 -84.615,493.059 -84.686,513.096C-84.729,525.192 -84.763,537.287 -84.787,549.382C-84.802,556.188 -84.821,562.994 -84.854,569.8C-84.884,575.955 -84.9,582.11 -84.904,588.265C-84.909,590.474 -84.918,592.684 -84.933,594.893C-84.952,597.867 -84.954,600.84 -84.95,603.814C-84.96,604.669 -84.97,605.525 -84.981,606.406C-84.951,611.341 -84.382,614.764 -81.602,619.018C-78.09,621.36 -76.738,621.514 -72.602,621.018C-69.265,618.867 -67.868,617.814 -66.602,614.018C-66.5,612.171 -66.456,610.321 -66.444,608.471C-66.434,607.302 -66.425,606.133 -66.415,604.928C-66.406,602.982 -66.406,602.982 -66.397,600.996C-66.388,599.598 -66.378,598.201 -66.367,596.803C-66.34,592.899 -66.319,588.994 -66.299,585.089C-66.281,581.651 -66.26,578.214 -66.239,574.777C-66.167,563.009 -66.109,551.24 -66.055,539.472C-66.04,536.345 -66.025,533.218 -66.01,530.091C-65.826,491.734 -65.702,453.376 -65.602,415.018C-65.6,414.181 -65.598,413.345 -65.596,412.483C-65.467,362.743 -65.373,313.004 -65.328,263.264C-65.324,259.223 -65.32,255.182 -65.316,251.141C-65.315,249.642 -65.315,249.642 -65.314,248.113C-65.299,232.913 -65.274,217.713 -65.243,202.513C-65.208,184.999 -65.187,167.484 -65.185,149.97C-65.183,140.871 -65.175,131.773 -65.149,122.674C-65.128,115.042 -65.119,107.41 -65.129,99.778C-65.134,95.909 -65.132,92.04 -65.112,88.17C-65.091,83.995 -65.102,79.819 -65.115,75.643C-65.104,74.424 -65.093,73.205 -65.082,71.949C-65.088,65.59 -65.088,65.59 -67.418,59.795C-72.673,55.519 -77.091,56.374 -81.602,61.018ZM-19.602,62.018C-20.353,65.071 -20.318,68.054 -20.301,71.186C-20.316,72.151 -20.33,73.116 -20.345,74.111C-20.388,77.476 -20.394,80.84 -20.4,84.206C-20.423,86.739 -20.447,89.272 -20.472,91.804C-20.542,99.426 -20.567,107.047 -20.587,114.668C-20.602,120.351 -20.626,126.034 -20.65,131.718C-20.781,163.783 -20.817,195.848 -20.837,227.913C-20.841,234.723 -20.846,241.533 -20.852,248.343C-20.869,271.74 -20.884,295.137 -20.892,318.534C-20.892,319.988 -20.893,321.442 -20.893,322.896C-20.894,323.617 -20.894,324.338 -20.894,325.081C-20.895,328.731 -20.896,332.382 -20.898,336.033C-20.898,336.757 -20.898,337.481 -20.898,338.228C-20.906,361.862 -20.93,385.496 -20.962,409.131C-20.996,434.243 -21.016,459.354 -21.02,484.466C-21.02,487.217 -21.02,489.968 -21.021,492.72C-21.021,493.397 -21.021,494.074 -21.021,494.772C-21.024,505.656 -21.039,516.54 -21.06,527.424C-21.08,538.324 -21.085,549.223 -21.076,560.122C-21.071,566.023 -21.073,571.924 -21.093,577.824C-21.11,583.219 -21.11,588.613 -21.094,594.007C-21.091,595.963 -21.096,597.918 -21.108,599.873C-21.123,602.522 -21.113,605.17 -21.097,607.818C-21.113,608.967 -21.113,608.967 -21.128,610.14C-21.081,613.755 -20.701,615.859 -18.782,618.96C-16.645,621.267 -16.645,621.267 -13.227,622.143C-9.459,622.31 -9.459,622.31 -6.227,619.955C-1.611,614.789 -2.456,608.328 -2.465,601.72C-2.463,600.787 -2.46,599.855 -2.457,598.894C-2.45,595.759 -2.449,592.623 -2.449,589.488C-2.445,587.222 -2.44,584.956 -2.435,582.689C-2.423,576.453 -2.418,570.217 -2.413,563.981C-2.408,557.949 -2.398,551.917 -2.388,545.885C-2.363,529.729 -2.347,513.572 -2.335,497.416C-2.33,492.066 -2.326,486.717 -2.321,481.367C-2.296,452.925 -2.274,424.484 -2.261,396.042C-2.258,389.455 -2.255,382.869 -2.252,376.282C-2.252,375.054 -2.252,375.054 -2.251,373.802C-2.239,347.25 -2.208,320.697 -2.166,294.145C-2.124,266.851 -2.097,239.557 -2.092,212.263C-2.091,208.411 -2.09,204.559 -2.089,200.707C-2.089,199.569 -2.089,199.569 -2.089,198.409C-2.085,186.194 -2.065,173.979 -2.038,161.765C-2.012,149.497 -2.004,137.229 -2.015,124.961C-2.021,118.311 -2.018,111.662 -1.993,105.012C-1.971,98.931 -1.971,92.85 -1.99,86.769C-1.993,84.563 -1.987,82.357 -1.972,80.151C-1.953,77.164 -1.965,74.178 -1.984,71.19C-1.972,70.324 -1.959,69.458 -1.946,68.566C-2.008,64.248 -2.217,62.523 -4.922,58.984C-7.535,56.765 -7.535,56.765 -11.102,56.393C-15.617,57.199 -16.825,58.393 -19.602,62.018Z" style="fill:rgb(228,212,174);fill-rule:nonzero;"/>
    </g>
    <g id="Middle-Column---Top---bottom" serif:id="Middle Column - Top - bottom" transform="matrix(1,0,0,1,1072.56,247.871)">
        <path d="M0,0C1.712,-0.005 1.712,-0.005 3.459,-0.009C5.253,-0.006 5.253,-0.006 7.083,-0.003C8.998,-0.006 8.998,-0.006 10.952,-0.008C14.353,-0.011 17.755,-0.007 21.156,0C23.26,0.004 25.363,0.007 27.467,0.01C59.375,0.057 59.375,0.057 74.188,0.442C75.918,0.475 75.918,0.475 77.684,0.51C84.135,0.729 90.529,1.329 96.438,4.129C99.333,8.472 99.086,12.036 98.438,17.129C95.474,28.191 86.68,36.992 78.692,44.821C74.181,49.317 71.987,52.008 71.626,58.504C71.661,59.482 71.695,60.459 71.731,61.465C71.438,64.129 71.438,64.129 69.802,66.418C64.261,70.43 56.74,69.205 50.188,69.129C39.324,69.067 28.484,69.248 17.626,69.567C16.914,69.587 16.201,69.606 15.468,69.627C8.588,69.82 1.732,70.07 -5.128,70.653C-12.317,71.243 -19.476,71.313 -26.687,71.317C-27.909,71.329 -29.131,71.341 -30.39,71.354C-38.301,71.366 -46.144,71.051 -54.039,70.535C-69.543,69.522 -84.956,68.961 -100.495,69.04C-101.376,69.044 -102.257,69.048 -103.164,69.052C-110.365,69.089 -117.565,69.149 -124.766,69.219C-130.213,69.272 -135.66,69.313 -141.107,69.336C-143.604,69.352 -146.101,69.384 -148.598,69.418C-166.012,69.556 -166.012,69.556 -173.562,66.129C-176.556,62.886 -176.974,60.489 -177.374,56.129C-178.676,46.647 -182.028,38.49 -189.753,32.606C-194.59,28.657 -198.702,23.79 -199.687,17.504C-199.783,12.932 -199.368,9.895 -196.562,6.129C-187.651,2.091 -178.508,1.474 -168.874,1.379C-167.351,1.351 -165.828,1.322 -164.305,1.292C-136.732,0.815 -109.138,1.065 -81.562,1.129C-72.018,1.152 -62.475,1.172 -52.932,1.183C-49.495,1.187 -46.058,1.193 -42.62,1.205C-38.812,1.217 -35.003,1.222 -31.195,1.227C-30.088,1.232 -28.981,1.237 -27.841,1.243C-21.582,1.243 -15.43,0.93 -9.198,0.357C-6.126,0.092 -3.082,0.002 0,0Z" style="fill:rgb(228,212,174);fill-rule:nonzero;"/>
    </g>
    <g id="Middle-Column---Top---top" serif:id="Middle Column - Top - top" transform="matrix(1,0,0,1,1087.01,181.821)">
        <path d="M0,0C8.232,-0.006 16.464,-0.017 24.696,-0.03C34.823,-0.045 44.949,-0.053 55.076,-0.051C60.314,-0.05 65.552,-0.053 70.789,-0.063C75.624,-0.073 80.458,-0.073 85.293,-0.066C87.056,-0.065 88.819,-0.067 90.582,-0.073C92.973,-0.081 95.363,-0.076 97.754,-0.069C98.451,-0.074 99.149,-0.079 99.867,-0.084C103.48,-0.058 104.892,0.111 107.993,2.179C108.35,4.966 108.35,4.966 108.322,8.522C108.317,9.824 108.313,11.126 108.308,12.467C108.287,13.871 108.266,15.275 108.243,16.679C108.231,18.096 108.219,19.513 108.208,20.93C107.94,48.338 107.94,48.338 105.993,54.179C98.348,55.107 90.784,55.355 83.087,55.413C81.186,55.432 81.186,55.432 79.246,55.453C75.752,55.489 72.257,55.519 68.763,55.548C64.984,55.581 61.206,55.619 57.427,55.657C50.031,55.729 42.635,55.797 35.24,55.863C26.609,55.94 17.978,56.022 9.347,56.105C-6.072,56.252 -21.49,56.395 -36.908,56.536C-51.829,56.672 -66.75,56.81 -81.671,56.952C-82.588,56.961 -83.506,56.969 -84.451,56.978C-88.14,57.013 -91.829,57.048 -95.518,57.083C-110.647,57.227 -125.776,57.368 -140.905,57.509C-144.338,57.541 -147.771,57.574 -151.205,57.606C-160.238,57.69 -169.27,57.774 -178.303,57.857C-182.034,57.891 -185.766,57.925 -189.497,57.96C-198.333,58.043 -207.17,58.116 -216.007,58.179C-217.102,58.188 -218.197,58.196 -219.326,58.205C-222.321,58.228 -225.316,58.244 -228.311,58.257C-229.178,58.265 -230.045,58.272 -230.938,58.28C-236.776,58.294 -236.776,58.294 -239.007,57.179C-239.029,56.605 -239.052,56.031 -239.076,55.439C-239.313,49.486 -239.558,43.533 -239.806,37.58C-239.898,35.356 -239.988,33.132 -240.077,30.907C-240.204,27.718 -240.337,24.528 -240.471,21.339C-240.51,20.338 -240.549,19.337 -240.588,18.305C-240.628,17.385 -240.668,16.464 -240.709,15.515C-240.743,14.7 -240.776,13.885 -240.81,13.045C-240.81,11.165 -240.81,11.165 -242.007,10.179C-242.139,8.366 -242.139,8.366 -242.132,6.179C-242.134,5.457 -242.137,4.735 -242.139,3.991C-242.007,2.179 -242.007,2.179 -241.007,1.179C-239.66,1.071 -238.308,1.032 -236.958,1.02C-236.076,1.011 -235.195,1.001 -234.287,0.991C-233.305,0.985 -232.323,0.979 -231.311,0.973C-230.271,0.963 -229.232,0.954 -228.162,0.943C-224.617,0.911 -221.071,0.887 -217.526,0.862C-214.951,0.841 -212.377,0.82 -209.802,0.799C-201.897,0.735 -193.991,0.682 -186.086,0.631C-183.076,0.611 -180.067,0.59 -177.057,0.57C-118.039,0.163 -59.02,0.041 0,0Z" style="fill:rgb(228,212,173);fill-rule:nonzero;"/>
    </g>
    <g id="Left-Column---Bottom---bottom" serif:id="Left Column - Bottom - bottom" transform="matrix(1,0,0,1,429.401,1060.95)">
        <path d="M0,0C0.89,0.006 1.78,0.013 2.696,0.02C5.739,0.043 8.783,0.074 11.826,0.104C14.056,0.123 16.287,0.141 18.517,0.159C24.76,0.211 31.002,0.269 37.245,0.329C43.262,0.385 49.28,0.438 55.298,0.49C68.384,0.605 81.47,0.726 94.556,0.849C110.625,1 126.694,1.144 142.764,1.285C163.982,1.472 185.201,1.663 206.419,1.858C208.795,1.88 211.171,1.902 213.547,1.923C214.722,1.934 215.897,1.945 217.107,1.956C225.425,2.032 233.744,2.106 242.062,2.18C252.329,2.27 262.596,2.364 272.863,2.462C278.185,2.513 283.506,2.562 288.828,2.608C293.759,2.65 298.689,2.696 303.62,2.746C305.412,2.763 307.204,2.779 308.996,2.793C317.581,2.861 326.067,2.987 334.599,4.053C338.182,14.801 336.743,28.183 336.83,39.429C336.843,40.846 336.86,42.262 336.883,43.679C336.913,45.689 336.92,47.699 336.927,49.71C336.937,50.883 336.946,52.057 336.956,53.266C336.779,54.646 336.779,54.646 336.599,56.053C333.019,58.44 330.491,58.331 326.36,58.301C325.615,58.303 324.87,58.306 324.103,58.308C321.592,58.314 319.081,58.305 316.57,58.296C314.765,58.297 312.959,58.299 311.154,58.302C306.201,58.307 301.249,58.299 296.296,58.289C291.016,58.28 285.735,58.283 280.454,58.284C270.229,58.284 260.004,58.272 249.779,58.256C241.549,58.244 233.318,58.235 225.087,58.23C166.487,58.188 107.887,58.052 49.288,57.647C46.277,57.626 43.265,57.606 40.254,57.586C31.797,57.531 23.34,57.471 14.883,57.401C12.376,57.38 9.869,57.362 7.362,57.344C4.006,57.321 0.651,57.291 -2.705,57.259C-3.687,57.253 -4.67,57.247 -5.682,57.241C-6.563,57.232 -7.444,57.222 -8.352,57.212C-9.116,57.205 -9.88,57.199 -10.667,57.192C-12.401,57.053 -12.401,57.053 -13.401,56.053C-13.534,54.241 -13.534,54.241 -13.526,52.053C-13.528,51.332 -13.531,50.61 -13.534,49.866C-13.401,48.053 -13.401,48.053 -12.401,47.053C-12.249,45.613 -12.163,44.165 -12.104,42.717C-12.044,41.336 -12.044,41.336 -11.983,39.927C-11.944,38.926 -11.905,37.925 -11.866,36.893C-11.823,35.874 -11.78,34.854 -11.735,33.804C-11.599,30.533 -11.468,27.262 -11.338,23.991C-11.247,21.779 -11.155,19.568 -11.063,17.356C-10.837,11.922 -10.617,6.488 -10.401,1.053C-7.147,-0.574 -3.573,-0.042 0,0Z" style="fill:rgb(228,212,173);fill-rule:nonzero;"/>
    </g>
    <g id="Left-Column---Bottom---top" serif:id="Left Column - Bottom - top" transform="matrix(1,0,0,1,619.875,986.812)">
        <path d="M0,0C1.307,0.001 2.614,0.001 3.961,0.002C10.876,0.033 17.691,0.35 24.579,0.936C32.082,1.468 39.606,1.573 47.125,1.75C48.867,1.794 50.61,1.839 52.352,1.883C62.214,2.125 72.072,2.322 81.936,2.063C87.004,1.981 91.289,2.593 96.125,4.188C98.446,7.669 98.139,8.484 97.938,12.5C98.484,21.197 104.613,25.834 110.508,31.582C118.192,39.214 125.179,48.449 125.688,59.625C125.498,62.683 125.225,64.02 123.625,66.688C118.02,70.051 111.61,70.494 105.203,70.602C104.445,70.621 103.687,70.64 102.907,70.661C100.396,70.721 97.886,70.768 95.375,70.813C93.593,70.85 91.811,70.888 90.029,70.925C74.791,71.224 59.552,71.292 44.313,71.313C43.192,71.315 42.071,71.318 40.917,71.321C37.688,71.326 34.459,71.325 31.23,71.32C30.285,71.322 29.34,71.324 28.365,71.326C23.735,71.31 19.182,71.131 14.572,70.686C8.199,70.139 1.885,70.06 -4.508,70.09C-5.71,70.091 -6.912,70.093 -8.151,70.094C-11.419,70.099 -14.687,70.108 -17.955,70.119C-21.426,70.129 -24.896,70.133 -28.366,70.136C-37.942,70.148 -47.518,70.17 -57.094,70.193C-121.465,70.343 -121.465,70.343 -139.962,69.979C-141.405,69.952 -142.848,69.931 -144.291,69.917C-153.205,69.819 -161.665,68.908 -169.875,65.188C-172.681,61.422 -173.096,58.385 -173,53.813C-171.889,46.722 -166.841,41.586 -161.313,37.375C-154.59,31.864 -151.838,23.626 -150.813,15.25C-150.318,11.315 -150.014,9.409 -147.875,6C-139.522,0.954 -129.139,1.94 -119.701,2.037C-117.124,2.063 -114.548,2.076 -111.97,2.085C-105.549,2.112 -99.128,2.159 -92.707,2.208C-86.431,2.255 -80.155,2.292 -73.879,2.313C-72.994,2.315 -72.11,2.318 -71.199,2.322C-55.849,2.354 -40.612,1.645 -25.3,0.646C-16.852,0.098 -8.464,-0.085 0,0Z" style="fill:rgb(228,212,174);fill-rule:nonzero;"/>
    </g>
    <g id="Left-Column" serif:id="Left Column" transform="matrix(1,0,0,1,661.602,325.982)">
        <path d="M0,0C6.28,-0.03 12.56,-0.054 18.84,-0.066C20.631,-0.07 22.422,-0.075 24.212,-0.083C26.596,-0.092 28.981,-0.095 31.365,-0.095C33.316,-0.099 33.316,-0.099 35.306,-0.103C38.398,0.018 38.398,0.018 41.398,1.018C42.085,13.892 42.085,13.892 39.773,17.705C37.074,20.333 34.956,20.95 31.398,22.018C31.406,23.268 31.414,24.519 31.423,25.808C31.796,80.959 32.169,136.111 32.542,191.263C32.547,192.098 32.553,192.934 32.559,193.795C32.681,211.961 32.804,230.127 32.926,248.293C32.986,257.202 33.046,266.111 33.106,275.021C33.112,275.907 33.118,276.794 33.125,277.707C33.318,306.412 33.512,335.117 33.707,363.822C33.906,393.334 34.106,422.847 34.304,452.36C34.333,456.534 34.361,460.708 34.389,464.882C34.394,465.704 34.4,466.525 34.406,467.372C34.494,480.563 34.584,493.755 34.673,506.947C34.763,520.229 34.853,533.51 34.942,546.792C34.995,554.67 35.048,562.548 35.102,570.427C35.142,576.33 35.182,582.234 35.221,588.138C35.237,590.511 35.253,592.884 35.27,595.257C35.37,609.844 35.417,624.43 35.398,639.018C36.35,639.154 37.303,639.291 38.284,639.432C41.533,640.043 42.492,640.411 44.398,643.018C45.891,647.497 46.118,652.01 44.523,656.455C43.398,658.018 43.398,658.018 41.398,659.018C39.088,659.115 36.775,659.144 34.463,659.145C33.741,659.146 33.018,659.148 32.274,659.15C29.838,659.154 27.402,659.15 24.966,659.147C23.222,659.149 21.479,659.15 19.735,659.153C14.974,659.157 10.213,659.155 5.451,659.152C0.426,659.15 -4.6,659.152 -9.626,659.154C-18.118,659.155 -26.61,659.153 -35.102,659.148C-43.727,659.143 -52.351,659.143 -60.975,659.148C-153.354,659.199 -153.354,659.199 -192.602,658.018C-195.556,652.346 -195.896,650.186 -194.602,644.018C-193.19,640.015 -191.274,639.254 -187.547,637.456C-183.803,634.902 -182.752,633.649 -181.696,629.179C-181.255,624.126 -181.389,619.074 -181.495,614.008C-181.499,612.08 -181.497,610.151 -181.491,608.223C-181.486,604.178 -181.508,600.135 -181.552,596.091C-181.61,590.321 -181.581,584.555 -181.52,578.785C-181.443,571.081 -181.388,563.377 -181.362,555.673C-181.357,554.164 -181.357,554.164 -181.352,552.625C-181.345,550.545 -181.339,548.466 -181.332,546.387C-181.313,540.8 -181.29,535.212 -181.267,529.625C-181.227,519.979 -181.191,510.332 -181.157,500.686C-181.107,486.639 -181.052,472.593 -180.995,458.547C-180.903,435.611 -180.814,412.676 -180.727,389.74C-180.724,388.716 -180.724,388.716 -180.72,387.671C-180.696,381.452 -180.673,375.233 -180.649,369.014C-180.592,353.904 -180.535,338.794 -180.477,323.684C-180.475,323.009 -180.472,322.334 -180.47,321.638C-180.41,306.097 -180.351,290.557 -180.289,275.016C-180.286,274.355 -180.284,273.693 -180.281,273.012C-180.252,265.734 -180.223,258.456 -180.194,251.178C-180.143,238.461 -180.094,225.745 -180.048,213.028C-179.822,150.354 -179.392,87.688 -178.602,25.018C-179.699,24.877 -180.796,24.737 -181.927,24.592C-185.702,24.002 -187.676,23.443 -190.602,21.018C-191.915,17.83 -191.915,17.83 -192.602,15.018L-194.602,15.018C-194.684,13.415 -194.742,11.81 -194.79,10.205C-194.825,9.312 -194.86,8.419 -194.895,7.498C-194.602,5.018 -194.602,5.018 -193.604,3.394C-190.429,1.211 -187.009,1.547 -183.284,1.526C-181.982,1.501 -181.982,1.501 -180.654,1.476C-177.707,1.425 -174.761,1.395 -171.813,1.366C-169.682,1.334 -167.551,1.301 -165.419,1.268C-158.147,1.16 -150.875,1.088 -143.602,1.018C-141.601,0.997 -139.6,0.977 -137.599,0.956C-118.455,0.761 -99.311,0.623 -80.166,0.5C-74.761,0.466 -69.355,0.429 -63.949,0.39C-42.633,0.238 -21.316,0.106 0,0ZM-141.602,62.018C-142.735,65.129 -142.725,68.106 -142.719,71.395C-142.719,72.496 -142.72,73.598 -142.72,74.732C-142.716,75.945 -142.711,77.158 -142.707,78.408C-142.706,79.701 -142.705,80.995 -142.704,82.327C-142.701,85.944 -142.692,89.561 -142.682,93.177C-142.672,97.123 -142.668,101.069 -142.664,105.015C-142.655,111.969 -142.642,118.923 -142.626,125.876C-142.603,136.246 -142.587,146.616 -142.571,156.986C-142.532,182.657 -142.48,208.328 -142.426,233.998C-142.419,237.507 -142.412,241.015 -142.404,244.524C-142.358,266.528 -142.311,288.532 -142.263,310.536C-142.252,315.558 -142.241,320.58 -142.23,325.602C-142.227,326.849 -142.225,328.096 -142.222,329.381C-142.178,349.68 -142.137,369.98 -142.098,390.279C-142.057,411.313 -142.013,432.347 -141.966,453.382C-141.939,465.116 -141.914,476.85 -141.893,488.584C-141.876,498.543 -141.855,508.502 -141.83,518.461C-141.817,523.515 -141.806,528.57 -141.799,533.624C-141.782,545.2 -141.734,556.775 -141.626,568.351C-141.61,570.176 -141.595,572.001 -141.581,573.826C-141.538,579.481 -141.475,585.135 -141.38,590.789C-141.353,592.56 -141.333,594.33 -141.32,596.101C-141.3,598.534 -141.256,600.965 -141.205,603.398C-141.204,604.115 -141.203,604.831 -141.203,605.57C-141.106,608.932 -140.82,610.735 -138.748,613.435C-135.946,615.502 -134.079,615.947 -130.602,616.018C-127.073,614.414 -125.775,613.276 -123.602,610.018C-123.302,607.238 -123.302,607.238 -123.354,604.031C-123.347,602.14 -123.347,602.14 -123.34,600.212C-123.345,598.805 -123.35,597.398 -123.355,595.99C-123.354,594.5 -123.351,593.009 -123.348,591.519C-123.342,587.407 -123.348,583.295 -123.356,579.183C-123.362,574.745 -123.357,570.306 -123.354,565.867C-123.349,557.122 -123.354,548.376 -123.364,539.631C-123.374,529.295 -123.374,518.96 -123.373,508.624C-123.373,489.982 -123.382,471.341 -123.397,452.699C-123.41,434.981 -123.418,417.262 -123.417,399.544C-123.417,397.383 -123.417,395.222 -123.417,393.061C-123.417,391.992 -123.417,390.924 -123.417,389.823L-123.417,383.36C-123.416,329.579 -123.475,275.798 -123.602,222.018C-123.605,221.011 -123.607,220.003 -123.61,218.966C-123.668,193.893 -123.745,168.821 -123.866,143.749C-123.87,142.872 -123.874,141.994 -123.879,141.089C-123.883,140.217 -123.887,139.345 -123.892,138.447C-123.92,132.383 -123.941,126.32 -123.959,120.256C-123.981,113.019 -124.013,105.782 -124.059,98.545C-124.082,94.9 -124.1,91.255 -124.106,87.61C-124.112,83.692 -124.141,79.775 -124.173,75.857C-124.171,74.717 -124.17,73.577 -124.168,72.403C-124.18,71.361 -124.192,70.32 -124.205,69.247C-124.209,68.351 -124.214,67.455 -124.218,66.532C-124.69,63.447 -125.81,61.55 -127.602,59.018C-133.371,55.11 -137.052,57.569 -141.602,62.018ZM-81.602,61.018C-82.791,63.395 -82.756,64.901 -82.803,67.556C-82.822,68.519 -82.841,69.481 -82.86,70.473C-82.876,71.539 -82.892,72.605 -82.908,73.703C-82.928,74.83 -82.948,75.958 -82.968,77.119C-83.033,80.936 -83.09,84.752 -83.145,88.569C-83.166,89.923 -83.187,91.277 -83.208,92.631C-83.744,127.357 -83.822,162.084 -83.9,196.813C-83.921,206.395 -83.947,215.977 -83.974,225.558C-84.021,242.796 -84.064,260.033 -84.105,277.271C-84.144,293.654 -84.186,310.038 -84.23,326.421C-84.236,328.444 -84.241,330.466 -84.247,332.489C-84.255,335.516 -84.263,338.542 -84.271,341.568C-84.344,368.287 -84.414,395.006 -84.468,421.725C-84.47,422.678 -84.472,423.632 -84.474,424.615C-84.493,434.071 -84.511,443.527 -84.529,452.983C-84.567,473.021 -84.615,493.059 -84.686,513.096C-84.729,525.192 -84.763,537.287 -84.787,549.382C-84.802,556.188 -84.821,562.994 -84.854,569.8C-84.884,575.955 -84.9,582.11 -84.904,588.265C-84.909,590.474 -84.918,592.684 -84.933,594.893C-84.952,597.867 -84.954,600.84 -84.95,603.814C-84.96,604.669 -84.97,605.525 -84.981,606.406C-84.951,611.341 -84.382,614.764 -81.602,619.018C-78.09,621.36 -76.738,621.514 -72.602,621.018C-69.265,618.867 -67.868,617.814 -66.602,614.018C-66.5,612.171 -66.456,610.321 -66.444,608.471C-66.434,607.302 -66.425,606.133 -66.415,604.928C-66.406,602.982 -66.406,602.982 -66.397,600.996C-66.388,599.598 -66.378,598.201 -66.367,596.803C-66.34,592.899 -66.319,588.994 -66.299,585.089C-66.281,581.651 -66.26,578.214 -66.239,574.777C-66.167,563.009 -66.109,551.24 -66.055,539.472C-66.04,536.345 -66.025,533.218 -66.01,530.091C-65.826,491.734 -65.702,453.376 -65.602,415.018C-65.6,414.181 -65.598,413.345 -65.596,412.483C-65.467,362.743 -65.373,313.004 -65.328,263.264C-65.324,259.223 -65.32,255.182 -65.316,251.141C-65.315,249.642 -65.315,249.642 -65.314,248.113C-65.299,232.913 -65.274,217.713 -65.243,202.513C-65.208,184.999 -65.187,167.484 -65.185,149.97C-65.183,140.871 -65.175,131.773 -65.149,122.674C-65.128,115.042 -65.119,107.41 -65.129,99.778C-65.134,95.909 -65.132,92.04 -65.112,88.17C-65.091,83.995 -65.102,79.819 -65.115,75.643C-65.104,74.424 -65.093,73.205 -65.082,71.949C-65.088,65.59 -65.088,65.59 -67.418,59.795C-72.673,55.519 -77.091,56.374 -81.602,61.018ZM-19.602,62.018C-20.353,65.071 -20.318,68.054 -20.301,71.186C-20.316,72.151 -20.33,73.116 -20.345,74.111C-20.388,77.476 -20.394,80.84 -20.4,84.206C-20.423,86.739 -20.447,89.272 -20.472,91.804C-20.542,99.426 -20.567,107.047 -20.587,114.668C-20.602,120.351 -20.626,126.034 -20.65,131.718C-20.781,163.783 -20.817,195.848 -20.837,227.913C-20.841,234.723 -20.846,241.533 -20.852,248.343C-20.869,271.74 -20.884,295.137 -20.892,318.534C-20.892,319.988 -20.893,321.442 -20.893,322.896C-20.894,323.617 -20.894,324.338 -20.894,325.081C-20.895,328.731 -20.896,332.382 -20.898,336.033C-20.898,336.757 -20.898,337.481 -20.898,338.228C-20.906,361.862 -20.93,385.496 -20.962,409.131C-20.996,434.243 -21.016,459.354 -21.02,484.466C-21.02,487.217 -21.02,489.968 -21.021,492.72C-21.021,493.397 -21.021,494.074 -21.021,494.772C-21.024,505.656 -21.039,516.54 -21.06,527.424C-21.08,538.324 -21.085,549.223 -21.076,560.122C-21.071,566.023 -21.073,571.924 -21.093,577.824C-21.11,583.219 -21.11,588.613 -21.094,594.007C-21.091,595.963 -21.096,597.918 -21.108,599.873C-21.123,602.522 -21.113,605.17 -21.097,607.818C-21.113,608.967 -21.113,608.967 -21.128,610.14C-21.081,613.755 -20.701,615.859 -18.782,618.96C-16.645,621.267 -16.645,621.267 -13.227,622.143C-9.459,622.31 -9.459,622.31 -6.227,619.955C-1.611,614.789 -2.456,608.328 -2.465,601.72C-2.463,600.787 -2.46,599.855 -2.457,598.894C-2.45,595.759 -2.449,592.623 -2.449,589.488C-2.445,587.222 -2.44,584.956 -2.435,582.689C-2.423,576.453 -2.418,570.217 -2.413,563.981C-2.408,557.949 -2.398,551.917 -2.388,545.885C-2.363,529.729 -2.347,513.572 -2.335,497.416C-2.33,492.066 -2.326,486.717 -2.321,481.367C-2.296,452.925 -2.274,424.484 -2.261,396.042C-2.258,389.455 -2.255,382.869 -2.252,376.282C-2.252,375.054 -2.252,375.054 -2.251,373.802C-2.239,347.25 -2.208,320.697 -2.166,294.145C-2.124,266.851 -2.097,239.557 -2.092,212.263C-2.091,208.411 -2.09,204.559 -2.089,200.707C-2.089,199.569 -2.089,199.569 -2.089,198.409C-2.085,186.194 -2.065,173.979 -2.038,161.765C-2.012,149.497 -2.004,137.229 -2.015,124.961C-2.021,118.311 -2.018,111.662 -1.993,105.012C-1.971,98.931 -1.971,92.85 -1.99,86.769C-1.993,84.563 -1.987,82.357 -1.972,80.151C-1.953,77.164 -1.965,74.178 -1.984,71.19C-1.972,70.324 -1.959,69.458 -1.946,68.566C-2.008,64.248 -2.217,62.523 -4.922,58.984C-7.535,56.765 -7.535,56.765 -11.102,56.393C-15.617,57.199 -16.825,58.393 -19.602,62.018Z" style="fill:rgb(228,212,174);fill-rule:nonzero;"/>
    </g>
    <g id="Left-Column---Top---bottom" serif:id="Left Column - Top - bottom" transform="matrix(1,0,0,1,641.562,247.871)">
        <path d="M0,0C1.712,-0.005 1.712,-0.005 3.459,-0.009C5.253,-0.006 5.253,-0.006 7.083,-0.003C8.998,-0.006 8.998,-0.006 10.952,-0.008C14.353,-0.011 17.755,-0.007 21.156,0C23.26,0.004 25.363,0.007 27.467,0.01C59.375,0.057 59.375,0.057 74.188,0.442C75.918,0.475 75.918,0.475 77.684,0.51C84.135,0.729 90.529,1.329 96.438,4.129C99.333,8.472 99.086,12.036 98.438,17.129C95.474,28.191 86.68,36.992 78.692,44.821C74.181,49.317 71.987,52.008 71.626,58.504C71.661,59.482 71.695,60.459 71.731,61.465C71.438,64.129 71.438,64.129 69.802,66.418C64.261,70.43 56.74,69.205 50.188,69.129C39.324,69.067 28.484,69.248 17.626,69.567C16.914,69.587 16.201,69.606 15.468,69.627C8.588,69.82 1.732,70.07 -5.128,70.653C-12.317,71.243 -19.476,71.313 -26.687,71.317C-27.909,71.329 -29.131,71.341 -30.39,71.354C-38.301,71.366 -46.144,71.051 -54.039,70.535C-69.543,69.522 -84.956,68.961 -100.495,69.04C-101.376,69.044 -102.257,69.048 -103.164,69.052C-110.365,69.089 -117.565,69.149 -124.766,69.219C-130.213,69.272 -135.66,69.313 -141.107,69.336C-143.604,69.352 -146.101,69.384 -148.598,69.418C-166.012,69.556 -166.012,69.556 -173.562,66.129C-176.556,62.886 -176.974,60.489 -177.374,56.129C-178.676,46.647 -182.028,38.49 -189.753,32.606C-194.59,28.657 -198.702,23.79 -199.687,17.504C-199.783,12.932 -199.368,9.895 -196.562,6.129C-187.651,2.091 -178.508,1.474 -168.874,1.379C-167.351,1.351 -165.828,1.322 -164.305,1.292C-136.732,0.815 -109.138,1.065 -81.562,1.129C-72.018,1.152 -62.475,1.172 -52.932,1.183C-49.495,1.187 -46.058,1.193 -42.62,1.205C-38.812,1.217 -35.003,1.222 -31.195,1.227C-30.088,1.232 -28.981,1.237 -27.841,1.243C-21.582,1.243 -15.43,0.93 -9.198,0.357C-6.126,0.092 -3.082,0.002 0,0Z" style="fill:rgb(228,212,174);fill-rule:nonzero;"/>
    </g>
    <g id="Left-Column---Top---top" serif:id="Left Column - Top - top" transform="matrix(1,0,0,1,653.007,186.821)">
        <path d="M0,0C8.232,-0.006 16.464,-0.017 24.696,-0.03C34.823,-0.045 44.949,-0.053 55.076,-0.051C60.314,-0.05 65.552,-0.053 70.789,-0.063C75.624,-0.073 80.458,-0.073 85.293,-0.066C87.056,-0.065 88.819,-0.067 90.582,-0.073C92.973,-0.081 95.363,-0.076 97.754,-0.069C98.451,-0.074 99.149,-0.079 99.867,-0.084C103.48,-0.058 104.892,0.111 107.993,2.179C108.35,4.966 108.35,4.966 108.322,8.522C108.317,9.824 108.313,11.126 108.308,12.467C108.287,13.871 108.266,15.275 108.243,16.679C108.231,18.096 108.219,19.513 108.208,20.93C107.94,48.338 107.94,48.338 105.993,54.179C98.348,55.107 90.784,55.355 83.087,55.413C81.186,55.432 81.186,55.432 79.246,55.453C75.752,55.489 72.257,55.519 68.763,55.548C64.984,55.581 61.206,55.619 57.427,55.657C50.031,55.729 42.635,55.797 35.24,55.863C26.609,55.94 17.978,56.022 9.347,56.105C-6.072,56.252 -21.49,56.395 -36.908,56.536C-51.829,56.672 -66.75,56.81 -81.671,56.952C-82.588,56.961 -83.506,56.969 -84.451,56.978C-88.14,57.013 -91.829,57.048 -95.518,57.083C-110.647,57.227 -125.776,57.368 -140.905,57.509C-144.338,57.541 -147.771,57.574 -151.205,57.606C-160.238,57.69 -169.27,57.774 -178.303,57.857C-182.034,57.891 -185.766,57.925 -189.497,57.96C-198.333,58.043 -207.17,58.116 -216.007,58.179C-217.102,58.188 -218.197,58.196 -219.326,58.205C-222.321,58.228 -225.316,58.244 -228.311,58.257C-229.178,58.265 -230.045,58.272 -230.938,58.28C-236.776,58.294 -236.776,58.294 -239.007,57.179C-239.029,56.605 -239.052,56.031 -239.076,55.439C-239.313,49.486 -239.558,43.533 -239.806,37.58C-239.898,35.356 -239.988,33.132 -240.077,30.907C-240.204,27.718 -240.337,24.528 -240.471,21.339C-240.51,20.338 -240.549,19.337 -240.588,18.305C-240.628,17.385 -240.668,16.464 -240.709,15.515C-240.743,14.7 -240.776,13.885 -240.81,13.045C-240.81,11.165 -240.81,11.165 -242.007,10.179C-242.139,8.366 -242.139,8.366 -242.132,6.179C-242.134,5.457 -242.137,4.735 -242.139,3.991C-242.007,2.179 -242.007,2.179 -241.007,1.179C-239.66,1.071 -238.308,1.032 -236.958,1.02C-236.076,1.011 -235.195,1.001 -234.287,0.991C-233.305,0.985 -232.323,0.979 -231.311,0.973C-230.271,0.963 -229.232,0.954 -228.162,0.943C-224.617,0.911 -221.071,0.887 -217.526,0.862C-214.951,0.841 -212.377,0.82 -209.802,0.799C-201.897,0.735 -193.991,0.682 -186.086,0.631C-183.076,0.611 -180.067,0.59 -177.057,0.57C-118.039,0.163 -59.02,0.041 0,0Z" style="fill:rgb(228,212,173);fill-rule:nonzero;"/>
    </g>
    <g transform="matrix(1,0,0,1,1913,1407)">
        <path d="M0,0C3.892,3.892 3.163,10.001 3.316,15.242C3.337,15.928 3.358,16.614 3.379,17.321C3.422,18.772 3.464,20.222 3.503,21.673C3.561,23.834 3.627,25.995 3.693,28.156C3.8,31.718 3.882,35.281 3.953,38.844C3.985,40.301 4.023,41.758 4.067,43.215C4.131,45.375 4.175,47.535 4.215,49.695C4.246,50.956 4.277,52.217 4.308,53.516C3.968,57.36 3.02,59.733 1,63C-2.144,64.572 -5.578,64.518 -9,64C-12.89,62.117 -14.997,60.073 -17.375,56.5C-17.967,55.62 -18.558,54.739 -19.168,53.832C-21.588,50.091 -23.979,46.332 -26.324,42.543C-29.638,37.514 -33.298,33.611 -38.063,29.938C-38.63,29.5 -39.197,29.062 -39.781,28.612C-44.812,24.878 -49.935,22.61 -56,21C-56.599,20.801 -57.199,20.603 -57.816,20.398C-68.906,18.375 -83.696,20.944 -93.434,26.352C-102.125,32.496 -106.651,39.566 -108.813,49.875C-109.412,56.524 -108.269,62.702 -104.375,68.188C-90.819,84.37 -71.068,90.365 -51.853,97.183C-48.905,98.231 -45.961,99.286 -43.016,100.34C-40.863,101.107 -38.706,101.86 -36.548,102.612C-20.507,108.282 -7.41,117.299 4,130C4.668,130.728 5.335,131.457 6.023,132.207C15.126,143.28 19.991,159.837 21,174C21.048,174.66 21.095,175.321 21.145,176.001C22.508,197.88 13.479,215.105 -0.547,231.484C-21.877,253.358 -52.148,262.372 -82,263C-83.484,263.035 -83.484,263.035 -84.998,263.071C-94.862,263.195 -104.572,262.493 -114.375,261.5C-115.203,261.417 -116.03,261.334 -116.883,261.249C-132.382,259.643 -149.971,257.254 -163,248C-166.404,241.191 -165.244,231.058 -165.422,223.605C-165.464,221.88 -165.464,221.88 -165.506,220.119C-165.562,217.705 -165.616,215.291 -165.667,212.876C-165.723,210.408 -165.785,207.94 -165.854,205.472C-165.954,201.892 -166.034,198.311 -166.109,194.73C-166.144,193.628 -166.178,192.526 -166.213,191.391C-166.23,190.362 -166.247,189.334 -166.265,188.274C-166.286,187.374 -166.307,186.474 -166.33,185.546C-165.92,182.384 -164.902,180.542 -163,178C-160.324,177.108 -158.746,176.865 -156,176.875C-155.319,176.872 -154.639,176.87 -153.938,176.867C-152,177 -152,177 -149,178C-145.316,182.308 -142.247,187.028 -140.188,192.313C-133.071,209.35 -116.266,221.465 -100,229C-94.786,230.951 -89.474,232.057 -84,233C-82.614,233.275 -82.614,233.275 -81.199,233.555C-69.168,235.435 -56.646,229.958 -47,223C-39.422,215.784 -36.071,204.594 -35.5,194.313C-36.042,184.912 -40.222,177.313 -47,171C-56.117,162.894 -65.128,158.817 -76.563,154.875C-132.922,134.943 -132.922,134.943 -147,113C-147.648,111.993 -148.297,110.986 -148.965,109.949C-159.441,93.007 -163.719,73.523 -159.813,53.813C-155.093,34.472 -144.4,14.326 -127.758,2.516C-90.43,-17.999 -38.667,-14.161 0,0Z" style="fill:rgb(228,212,174);fill-rule:nonzero;"/>
    </g>
    <g transform="matrix(1,0,0,1,1514.19,1401.95)">
        <path d="M0,0C1.289,0.002 1.289,0.002 2.605,0.004C56.427,0.156 56.427,0.156 77.813,3.047C78.72,3.169 79.627,3.291 80.562,3.417C104.265,6.787 126.098,13.954 141.813,33.047C143.99,36.586 145.445,40.133 146.813,44.047C147.202,44.974 147.591,45.901 147.992,46.855C154.169,63.234 151.817,82.345 145.527,98.309C138.825,112.89 127.228,123.584 114.125,132.422C113.507,132.839 112.89,133.256 112.253,133.686C102.541,140.047 102.541,140.047 96.813,140.047C110.675,164.13 126.112,187.138 141.813,210.047C142.223,210.647 142.634,211.247 143.057,211.866C144.257,213.618 145.46,215.368 146.664,217.117C147.7,218.624 147.7,218.624 148.756,220.161C157.501,232.435 166.766,237.654 180.172,243.516C183.028,245.172 183.854,245.937 184.813,249.047C185.402,253.325 185.217,257.025 183.625,261.047C180.528,264.464 176.136,264.176 171.722,264.452C170.734,264.515 169.745,264.578 168.727,264.643C167.668,264.707 166.61,264.77 165.52,264.836C164.418,264.903 163.317,264.971 162.183,265.041C159.853,265.182 157.524,265.321 155.195,265.459C151.655,265.67 148.116,265.893 144.576,266.117C142.307,266.253 140.038,266.389 137.77,266.523C136.721,266.591 135.673,266.659 134.593,266.728C124.134,267.321 115.644,267.425 107.215,260.789C92.849,247.815 84.114,227.768 74.813,211.047C74.254,210.042 73.695,209.038 73.119,208.002C67.971,198.716 62.951,189.369 58.07,179.939C57.036,177.953 55.992,175.971 54.936,173.996C52.827,170.043 50.784,166.207 49.313,161.969C47.807,158.188 47.028,156.57 43.813,154.047C39.9,153.322 36.022,153.291 32.051,153.258C30.434,153.218 30.434,153.218 28.784,153.177C26.126,153.113 23.47,153.071 20.813,153.047C20.781,163.096 20.787,173.145 20.841,183.194C20.865,187.861 20.876,192.527 20.857,197.194C20.84,201.7 20.856,206.206 20.896,210.713C20.905,212.429 20.903,214.145 20.887,215.861C20.399,226.531 20.399,226.531 25.207,235.542C27.002,236.966 27.002,236.966 28.813,238.047C29.667,238.648 30.522,239.248 31.402,239.867C32.564,240.513 32.564,240.513 33.75,241.172C35.015,241.897 35.015,241.897 36.305,242.637C37.132,243.102 37.96,243.567 38.813,244.047C40.34,244.931 41.862,245.826 43.375,246.734C44.336,247.297 44.336,247.297 45.316,247.871C46.813,249.047 46.813,249.047 47.813,252.047C48.086,254.352 48.086,254.352 48.188,256.922C48.261,258.186 48.261,258.186 48.336,259.477C47.553,263.322 45.872,264.637 42.813,267.047C39.881,267.752 37.041,267.691 34.038,267.63C32.727,267.634 32.727,267.634 31.389,267.637C28.501,267.639 25.614,267.605 22.727,267.57C20.707,267.564 18.687,267.559 16.668,267.556C11.344,267.543 6.02,267.498 0.696,267.448C-3.612,267.413 -7.92,267.4 -12.229,267.388C-17.41,267.373 -22.592,267.348 -27.773,267.32C-28.745,267.315 -29.716,267.31 -30.716,267.305C-41.913,267.239 -53.026,266.97 -64.188,266.047C-64.683,264.562 -64.683,264.562 -65.188,263.047L-67.188,263.047C-68.679,258.573 -68.93,254.728 -67,250.359C-63.502,245.896 -59.366,243.519 -54.25,241.234C-46.408,237.39 -42.852,233.453 -39.836,225.253C-38.829,221.828 -38.8,218.468 -38.862,214.935C-38.864,213.755 -38.864,213.755 -38.867,212.552C-38.876,209.91 -38.909,207.268 -38.941,204.625C-38.954,202.699 -38.966,200.772 -38.977,198.846C-39.022,192.246 -39.104,185.646 -39.188,179.047C-39.217,176.561 -39.246,174.075 -39.276,171.589C-39.482,154.465 -39.743,137.342 -40.022,120.219C-40.115,114.454 -40.203,108.689 -40.29,102.924C-40.376,97.26 -40.464,91.595 -40.555,85.93C-40.609,82.591 -40.661,79.252 -40.711,75.914C-40.941,59.255 -40.941,59.255 -41.553,42.606C-41.638,40.838 -41.638,40.838 -41.725,39.034C-42.694,32.773 -46.368,29.584 -51,25.672C-54.381,23.948 -57.316,23.218 -61.039,22.637C-63.738,21.896 -65.212,21.04 -67.188,19.047C-67.789,16.488 -67.789,16.488 -67.813,13.609C-67.846,12.662 -67.88,11.714 -67.914,10.738C-67.188,8.047 -67.188,8.047 -64.738,5.738C-60.244,3.598 -56.661,3.459 -51.75,3.422C-49.953,3.372 -48.156,3.317 -46.359,3.258C-45.478,3.229 -44.597,3.2 -43.689,3.171C-40.245,3 -36.912,2.552 -33.5,2.047C-22.364,0.439 -11.242,-0.025 0,0ZM25.813,29.047C25.185,30.275 24.561,31.504 23.938,32.734C23.589,33.419 23.241,34.103 22.883,34.809C22.53,35.547 22.176,36.286 21.813,37.047C21.465,37.749 21.118,38.451 20.76,39.175C19.536,42.885 19.549,46.373 19.585,50.234C19.585,51.044 19.585,51.854 19.585,52.689C19.586,55.357 19.601,58.024 19.617,60.691C19.621,62.545 19.624,64.399 19.626,66.253C19.633,71.124 19.653,75.995 19.675,80.866C19.696,85.84 19.705,90.813 19.715,95.787C19.736,105.54 19.77,115.294 19.813,125.047C22.637,124.899 25.461,124.749 28.285,124.598C29.073,124.557 29.861,124.516 30.672,124.474C47.096,123.585 61.975,122.562 74.07,110.324C82.235,101.218 86.214,88.332 86.063,76.297C86.054,75.505 86.046,74.713 86.038,73.897C85.812,62.025 84.12,53.716 75.77,44.887C63.939,33.685 46.655,28.734 30.5,28.734C28.936,28.811 27.372,28.902 25.813,29.047Z" style="fill:rgb(228,212,174);fill-rule:nonzero;"/>
    </g>
    <g transform="matrix(1,0,0,1,1268.81,1400.44)">
        <path d="M0,0C0.858,-0.027 1.716,-0.054 2.6,-0.081C3.398,-0.076 4.197,-0.071 5.02,-0.066C5.708,-0.067 6.396,-0.068 7.105,-0.069C10.578,0.984 11.941,2.718 14.188,5.563C15.732,9.046 16.819,12.638 17.922,16.281C18.615,18.461 19.311,20.639 20.01,22.816C20.367,23.936 20.724,25.056 21.092,26.209C22.823,31.506 24.723,36.737 26.641,41.969C27.023,43.017 27.406,44.065 27.801,45.144C28.597,47.321 29.395,49.498 30.194,51.675C32.389,57.655 34.571,63.64 36.754,69.625C37.204,70.858 37.653,72.091 38.117,73.361C42.93,86.573 47.657,99.816 52.375,113.063C60.235,135.119 68.143,157.157 76.146,179.162C78.229,184.895 80.286,190.637 82.327,196.386C83.679,200.19 85.042,203.992 86.407,207.792C87.043,209.57 87.673,211.35 88.299,213.131C92.856,227.341 92.856,227.341 102.539,238.227C103.664,238.702 103.664,238.702 104.813,239.188C105.659,239.568 106.506,239.948 107.379,240.34C108.306,240.743 109.233,241.147 110.188,241.563C112.382,242.611 114.569,243.674 116.75,244.75C117.762,245.239 118.774,245.727 119.816,246.23C122.188,247.563 122.188,247.563 123.188,249.563C123.361,251.516 123.454,253.477 123.5,255.438C123.537,256.487 123.575,257.536 123.613,258.617C123.087,262.255 122.055,263.341 119.188,265.563C114.635,267.08 110.063,266.942 105.289,267.113C104.151,267.155 103.013,267.197 101.84,267.24C87.34,267.721 72.837,267.75 58.331,267.748C54.31,267.748 50.29,267.762 46.269,267.779C43.126,267.79 39.982,267.792 36.839,267.791C35.355,267.792 33.871,267.797 32.388,267.805C16.213,267.882 16.213,267.882 8.75,264.438C6.279,261.472 6.032,258.287 6.188,254.563C7.145,251.242 8.005,249.347 10.926,247.41C14.146,245.753 17.406,244.483 20.813,243.25C24.873,241.22 28.182,238.728 30.188,234.563C29.761,228.558 27.198,223.196 24.934,217.695C24.513,216.661 24.093,215.626 23.66,214.56C22.321,211.267 20.973,207.977 19.625,204.688C18.714,202.451 17.803,200.214 16.893,197.977C14.664,192.503 12.428,187.031 10.188,181.563C2.961,181.539 -4.265,181.521 -11.492,181.511C-14.85,181.506 -18.209,181.498 -21.568,181.487C-39.679,181.429 -57.72,181.734 -75.813,182.563C-79.556,193.086 -83.231,203.628 -86.688,214.25C-87.134,215.592 -87.134,215.592 -87.59,216.961C-90.368,225.606 -91.728,232.817 -88.813,241.563C-86.113,244.262 -83.614,244.584 -79.938,245.563C-71.738,247.754 -71.738,247.754 -68.813,249.563C-67.079,253.029 -67.336,256.772 -67.813,260.563C-70.739,266.026 -70.739,266.026 -73.813,267.563C-75.71,267.636 -77.609,267.646 -79.508,267.625C-81.276,267.612 -81.276,267.612 -83.08,267.6C-84.353,267.587 -85.626,267.575 -86.938,267.563C-96.369,267.511 -105.764,267.598 -115.188,268.063C-123.17,268.446 -131.133,268.672 -139.125,268.688C-140.494,268.694 -140.494,268.694 -141.89,268.701C-160.896,268.659 -160.896,268.659 -165.813,264.563C-166.955,262.277 -167.044,260.794 -167.125,258.25C-167.162,257.491 -167.2,256.731 -167.238,255.949C-166.597,252.354 -165.521,251.064 -162.813,248.563C-159.245,246.882 -155.557,245.661 -151.813,244.438C-149.831,243.775 -147.852,243.105 -145.875,242.43C-144.562,241.998 -144.562,241.998 -143.223,241.558C-138.807,239.734 -136.849,238.001 -134.884,233.65C-134.198,231.988 -133.526,230.32 -132.863,228.648C-132.309,227.292 -132.309,227.292 -131.743,225.907C-130.526,222.922 -129.326,219.93 -128.125,216.938C-127.273,214.84 -126.419,212.743 -125.564,210.646C-123.815,206.353 -122.07,202.057 -120.33,197.76C-117.063,189.704 -113.735,181.675 -110.398,173.648C-109.366,171.165 -108.335,168.681 -107.304,166.196C-97.815,143.317 -88.275,120.458 -78.742,97.597C-75.378,89.53 -72.015,81.462 -68.657,73.393C-66.979,69.362 -65.299,65.332 -63.618,61.302C-61.7,56.704 -59.785,52.105 -57.871,47.506C-57.139,45.746 -56.405,43.987 -55.671,42.228C-54.641,39.763 -53.615,37.296 -52.59,34.828C-52.264,34.046 -51.938,33.264 -51.602,32.458C-50.034,28.66 -48.535,24.854 -47.161,20.982C-46.901,20.255 -46.64,19.528 -46.372,18.778C-45.895,17.427 -45.43,16.071 -44.981,14.711C-43.417,10.27 -41.481,7.511 -37.813,4.563C-35.191,3.628 -35.191,3.628 -32.375,3.199C-31.325,3.034 -30.274,2.869 -29.192,2.699C-28.077,2.551 -26.962,2.403 -25.813,2.25C-24.664,2.088 -23.516,1.927 -22.333,1.76C-14.9,0.785 -7.497,0.132 0,0ZM-31.813,62.563C-39.62,83.308 -47.397,104.065 -55.104,124.848C-55.868,126.909 -56.634,128.97 -57.402,131.031C-58.478,133.923 -59.55,136.817 -60.621,139.711C-60.945,140.58 -61.27,141.449 -61.604,142.344C-61.896,143.137 -62.189,143.93 -62.49,144.748C-62.747,145.44 -63.004,146.132 -63.268,146.845C-63.913,148.58 -63.913,148.58 -63.813,150.563C-41.119,150.678 -18.487,150.581 4.188,149.563C-3.458,129.209 -11.681,109.108 -19.977,89.013C-22.435,83.056 -24.875,77.091 -27.313,71.125C-28.01,69.418 -28.708,67.711 -29.406,66.004C-29.87,64.868 -30.334,63.733 -30.813,62.563L-31.813,62.563Z" style="fill:rgb(228,212,173);fill-rule:nonzero;"/>
    </g>
    <g transform="matrix(1,0,0,1,846.188,1401.57)">
        <path d="M0,0C0.911,0.003 1.822,0.006 2.761,0.008C5.779,0.023 8.795,0.068 11.813,0.113C13.926,0.132 16.04,0.15 18.154,0.167C22.658,0.207 27.163,0.262 31.667,0.327C37.787,0.416 43.908,0.473 50.029,0.525C54.965,0.569 59.901,0.629 64.837,0.693C67.23,0.723 69.624,0.749 72.018,0.771C75.379,0.804 78.74,0.856 82.102,0.914C83.1,0.92 84.097,0.927 85.126,0.934C90.392,1.046 94.299,1.39 98.813,4.426C99.652,6.582 99.652,6.582 99.75,8.926C99.8,9.699 99.851,10.473 99.902,11.27C99.813,13.426 99.813,13.426 98.813,16.426C96.992,17.305 96.992,17.305 94.688,17.988C93.469,18.367 93.469,18.367 92.227,18.754C90.191,19.321 88.128,19.791 86.063,20.238C81.077,22.06 78.933,25.181 76.652,29.75C75.66,31.959 74.727,34.184 73.813,36.426C73.318,37.416 73.318,37.416 72.813,38.426C72.714,41.063 72.676,43.675 72.683,46.313C72.681,47.547 72.681,47.547 72.678,48.807C72.674,51.576 72.677,54.344 72.68,57.113C72.678,59.086 72.677,61.058 72.675,63.03C72.663,80.851 72.708,98.673 72.763,116.493C72.801,129.032 72.812,141.571 72.777,154.11C72.756,162.492 72.763,170.874 72.792,179.256C72.809,184.197 72.811,189.137 72.781,194.077C72.753,198.707 72.763,203.335 72.801,207.964C72.809,209.654 72.802,211.343 72.781,213.032C72.424,221.931 72.424,221.931 75.56,229.972C83.89,237.479 94.685,238.069 105.473,237.711C125.183,236.633 147.069,232.503 161.137,217.563C164.055,213.842 166.411,209.787 168.828,205.73C170.664,202.673 172.561,199.69 174.563,196.738C175.094,195.951 175.625,195.163 176.172,194.352C178.505,191.613 180.469,190.587 184.031,190.16C184.784,190.165 185.537,190.17 186.313,190.176C187.065,190.171 187.818,190.165 188.594,190.16C191.125,190.463 192.697,191.001 194.813,192.426C199.336,205.996 197.874,219.642 195.469,233.454C195.065,235.786 194.68,238.121 194.297,240.457C191.255,258.499 191.255,258.499 187.813,264.426C181.539,268.458 173.239,267.584 166.063,267.551C164.418,267.546 164.418,267.546 162.741,267.541C152.483,267.481 142.227,267.314 131.971,267.106C130.154,267.07 128.337,267.036 126.519,267.004C117.6,266.845 108.743,266.561 99.862,265.696C81.773,263.94 63.648,264.012 45.49,263.883C38.236,263.831 30.982,263.765 23.728,263.695C21.234,263.673 18.74,263.656 16.246,263.64C6.731,263.565 -2.7,263.182 -12.188,262.426C-12.682,260.941 -12.682,260.941 -13.188,259.426L-15.188,259.426C-16.679,254.952 -16.93,251.107 -15,246.738C-11.502,242.275 -7.366,239.898 -2.25,237.613C5.592,233.769 9.148,229.832 12.164,221.632C13.171,218.207 13.2,214.847 13.138,211.313C13.136,210.134 13.136,210.134 13.133,208.931C13.124,206.289 13.091,203.647 13.059,201.004C13.046,199.078 13.034,197.151 13.023,195.225C12.978,188.625 12.896,182.025 12.813,175.426C12.783,172.94 12.754,170.454 12.724,167.968C12.518,150.844 12.257,133.721 11.978,116.598C11.885,110.833 11.797,105.068 11.71,99.303C11.624,93.638 11.536,87.974 11.445,82.309C11.391,78.97 11.339,75.631 11.289,72.292C11.059,55.633 11.059,55.633 10.447,38.985C10.362,37.217 10.362,37.217 10.275,35.412C9.306,29.152 5.632,25.963 1,22.051C-2.381,20.327 -5.316,19.597 -9.039,19.016C-11.738,18.275 -13.212,17.419 -15.188,15.426C-15.789,12.867 -15.789,12.867 -15.813,9.988C-15.846,9.041 -15.88,8.093 -15.914,7.117C-15.188,4.426 -15.188,4.426 -12.716,2.284C-8.233,-0.077 -4.978,-0.103 0,0Z" style="fill:rgb(228,212,174);fill-rule:nonzero;"/>
    </g>
    <g transform="matrix(1,0,0,1,584.188,1403.57)">
        <path d="M0,0C0.911,0.003 1.822,0.006 2.761,0.008C5.779,0.023 8.795,0.068 11.813,0.113C13.926,0.132 16.04,0.15 18.154,0.167C22.658,0.207 27.163,0.262 31.667,0.327C37.787,0.416 43.908,0.473 50.029,0.525C54.965,0.569 59.901,0.629 64.837,0.693C67.23,0.723 69.624,0.749 72.018,0.771C75.379,0.804 78.74,0.856 82.102,0.914C83.1,0.92 84.097,0.927 85.126,0.934C90.392,1.046 94.299,1.39 98.813,4.426C99.652,6.582 99.652,6.582 99.75,8.926C99.8,9.699 99.851,10.473 99.902,11.27C99.813,13.426 99.813,13.426 98.813,16.426C96.992,17.305 96.992,17.305 94.688,17.988C93.469,18.367 93.469,18.367 92.227,18.754C90.191,19.321 88.128,19.791 86.063,20.238C81.077,22.06 78.933,25.181 76.652,29.75C75.66,31.959 74.727,34.184 73.813,36.426C73.318,37.416 73.318,37.416 72.813,38.426C72.714,41.063 72.676,43.675 72.683,46.313C72.681,47.136 72.68,47.959 72.678,48.807C72.674,51.576 72.677,54.344 72.68,57.113C72.678,59.086 72.676,61.058 72.674,63.031C72.662,80.85 72.715,98.67 72.772,116.489C72.811,129.037 72.806,141.583 72.735,154.13C72.689,162.523 72.676,170.915 72.689,179.308C72.695,184.257 72.683,189.204 72.63,194.153C72.581,198.789 72.578,203.423 72.611,208.059C72.615,209.752 72.602,211.445 72.57,213.138C72.105,222.118 72.105,222.118 75.988,229.753C80.662,232.659 85.387,234.223 90.875,234.801C91.98,234.932 93.084,235.064 94.223,235.199C114.557,236.483 137.041,234.248 152.813,220.426C159.542,213.904 165.235,206.829 170.465,199.058C173.432,194.698 175.786,192.101 180.813,190.426C182.288,190.309 183.77,190.251 185.25,190.238C186.393,190.217 186.393,190.217 187.559,190.195C190.181,190.463 191.654,190.9 193.813,192.426C196.406,196.786 196.195,201.496 196.188,206.426C196.188,207.323 196.189,208.22 196.189,209.144C196.008,220.929 194.065,232.53 192.254,244.153C191.717,248.135 191.481,252.102 191.349,256.117C190.588,259.393 189.584,260.513 186.813,262.426C183.96,262.711 181.478,262.741 178.637,262.609C176.723,262.566 174.81,262.53 172.896,262.5C171.792,262.481 170.687,262.463 169.55,262.444C162.861,262.411 156.179,262.63 149.494,262.824C145.02,262.952 140.545,263.07 136.07,263.188C134.678,263.225 134.678,263.225 133.258,263.263C100.556,264.127 67.9,264.622 35.188,264.113C34.408,264.102 33.628,264.09 32.825,264.078C27.662,264.001 22.499,263.911 17.336,263.813C16.077,263.789 14.818,263.766 13.522,263.743C4.927,263.554 -3.616,263.06 -12.188,262.426C-12.682,260.941 -12.682,260.941 -13.188,259.426L-15.188,259.426C-16.679,254.952 -16.93,251.107 -15,246.738C-11.502,242.275 -7.366,239.898 -2.25,237.613C5.592,233.769 9.148,229.832 12.164,221.632C13.171,218.207 13.2,214.847 13.138,211.313C13.136,210.134 13.136,210.134 13.133,208.931C13.124,206.289 13.091,203.647 13.059,201.004C13.046,199.078 13.034,197.151 13.023,195.225C12.978,188.625 12.896,182.025 12.813,175.426C12.783,172.94 12.754,170.454 12.724,167.968C12.518,150.844 12.257,133.721 11.978,116.598C11.885,110.833 11.797,105.068 11.71,99.303C11.624,93.638 11.536,87.974 11.445,82.309C11.391,78.97 11.339,75.631 11.289,72.292C11.059,55.633 11.059,55.633 10.447,38.985C10.362,37.217 10.362,37.217 10.275,35.412C9.306,29.152 5.632,25.963 1,22.051C-2.381,20.327 -5.316,19.597 -9.039,19.016C-11.738,18.275 -13.212,17.419 -15.188,15.426C-15.789,12.867 -15.789,12.867 -15.813,9.988C-15.846,9.041 -15.88,8.093 -15.914,7.117C-15.188,4.426 -15.188,4.426 -12.716,2.284C-8.233,-0.077 -4.978,-0.103 0,0Z" style="fill:rgb(228,212,174);fill-rule:nonzero;"/>
    </g>
    <g transform="matrix(1,0,0,1,409.188,1405.57)">
        <path d="M0,0C0.911,0.003 1.822,0.006 2.761,0.008C5.779,0.023 8.795,0.068 11.813,0.113C13.926,0.132 16.04,0.15 18.154,0.167C22.658,0.207 27.163,0.262 31.667,0.327C37.787,0.416 43.908,0.473 50.029,0.525C54.965,0.569 59.901,0.629 64.837,0.693C67.23,0.723 69.624,0.749 72.018,0.771C75.379,0.804 78.74,0.856 82.102,0.914C83.1,0.92 84.097,0.927 85.126,0.934C90.392,1.046 94.299,1.39 98.813,4.426C99.652,6.582 99.652,6.582 99.75,8.926C99.8,9.699 99.851,10.473 99.902,11.27C99.813,13.426 99.813,13.426 98.813,16.426C96.992,17.305 96.992,17.305 94.688,17.988C93.469,18.367 93.469,18.367 92.227,18.754C90.191,19.321 88.128,19.791 86.063,20.238C81.077,22.06 78.933,25.181 76.652,29.75C75.66,31.959 74.727,34.184 73.813,36.426C73.318,37.416 73.318,37.416 72.813,38.426C72.714,41.063 72.676,43.675 72.683,46.313C72.681,47.547 72.681,47.547 72.678,48.807C72.674,51.576 72.677,54.344 72.68,57.113C72.678,59.086 72.677,61.058 72.675,63.03C72.671,69.496 72.678,75.961 72.688,82.426C72.689,83.523 72.691,84.62 72.692,85.75C72.708,95.998 72.728,106.246 72.759,116.493C72.796,129.032 72.814,141.571 72.798,154.11C72.789,162.492 72.806,170.874 72.844,179.256C72.866,184.197 72.876,189.137 72.857,194.077C72.839,198.707 72.855,203.335 72.896,207.964C72.905,209.654 72.903,211.343 72.887,213.032C72.467,223.258 72.467,223.258 77.207,231.868C79.003,233.313 79.003,233.313 80.813,234.426C81.667,235.026 82.522,235.627 83.402,236.246C84.564,236.892 84.564,236.892 85.75,237.551C87.015,238.276 87.015,238.276 88.305,239.016C89.132,239.481 89.96,239.946 90.813,240.426C92.34,241.31 93.862,242.205 95.375,243.113C96.336,243.676 96.336,243.676 97.316,244.25C98.813,245.426 98.813,245.426 99.813,248.426C100.086,250.73 100.086,250.73 100.188,253.301C100.236,254.144 100.285,254.987 100.336,255.855C99.553,259.701 97.872,261.016 94.813,263.426C91.881,264.131 89.041,264.069 86.038,264.009C84.727,264.013 84.727,264.013 83.389,264.016C80.501,264.018 77.614,263.984 74.727,263.949C72.707,263.942 70.687,263.938 68.668,263.935C63.344,263.922 58.02,263.877 52.696,263.827C48.388,263.792 44.08,263.779 39.771,263.767C34.59,263.752 29.408,263.727 24.227,263.699C23.255,263.694 22.284,263.689 21.284,263.684C10.087,263.618 -1.026,263.349 -12.188,262.426C-12.682,260.941 -12.682,260.941 -13.188,259.426L-15.188,259.426C-16.679,254.952 -16.93,251.107 -15,246.738C-11.502,242.275 -7.366,239.898 -2.25,237.613C5.592,233.769 9.148,229.832 12.164,221.632C13.171,218.207 13.2,214.847 13.138,211.313C13.136,210.134 13.136,210.134 13.133,208.931C13.124,206.289 13.091,203.647 13.059,201.004C13.046,199.078 13.034,197.151 13.023,195.225C12.978,188.625 12.896,182.025 12.813,175.426C12.783,172.94 12.754,170.454 12.724,167.968C12.518,150.844 12.257,133.721 11.978,116.598C11.885,110.833 11.797,105.068 11.71,99.303C11.624,93.638 11.536,87.974 11.445,82.309C11.391,78.97 11.339,75.631 11.289,72.292C11.059,55.633 11.059,55.633 10.447,38.985C10.362,37.217 10.362,37.217 10.275,35.412C9.306,29.152 5.632,25.963 1,22.051C-2.381,20.327 -5.316,19.597 -9.039,19.016C-11.738,18.275 -13.212,17.419 -15.188,15.426C-15.789,12.867 -15.789,12.867 -15.813,9.988C-15.846,9.041 -15.88,8.093 -15.914,7.117C-15.188,4.426 -15.188,4.426 -12.716,2.284C-8.233,-0.077 -4.978,-0.103 0,0Z" style="fill:rgb(228,211,174);fill-rule:nonzero;"/>
    </g>
    <g transform="matrix(1,0,0,1,317.199,1428.46)">
        <path d="M0,0C11.887,10.76 21.83,24.564 22.978,41.084C23.554,66.433 18.064,85.42 0.339,103.978C-14.099,118.599 -32.019,127.755 -51.199,134.535C-52.384,134.955 -53.569,135.376 -54.789,135.809C-70.388,140.938 -86.408,142.715 -102.762,142.598C-103.961,142.593 -105.161,142.589 -106.396,142.584C-109.331,142.572 -112.265,142.556 -115.199,142.535C-115.231,150.759 -115.225,158.982 -115.171,167.206C-115.147,171.025 -115.136,174.844 -115.155,178.663C-115.172,182.353 -115.155,186.042 -115.116,189.731C-115.106,191.135 -115.109,192.539 -115.125,193.943C-115.377,201.793 -115.377,201.793 -112.672,208.935C-110.935,210.707 -109.246,212.142 -107.199,213.535C-106.345,214.136 -105.49,214.737 -104.609,215.355C-103.447,216.001 -103.447,216.001 -102.262,216.66C-100.997,217.385 -100.997,217.385 -99.707,218.125C-98.879,218.59 -98.052,219.056 -97.199,219.535C-95.672,220.419 -94.15,221.314 -92.637,222.223C-91.676,222.785 -91.676,222.785 -90.695,223.359C-89.199,224.535 -89.199,224.535 -88.199,227.535C-87.926,229.84 -87.926,229.84 -87.824,232.41C-87.751,233.675 -87.751,233.675 -87.676,234.965C-88.459,238.81 -90.14,240.125 -93.199,242.535C-96.13,243.241 -98.971,243.179 -101.974,243.119C-103.285,243.122 -103.285,243.122 -104.622,243.126C-107.511,243.127 -110.397,243.093 -113.285,243.059C-115.305,243.052 -117.324,243.047 -119.344,243.044C-124.668,243.031 -129.992,242.987 -135.316,242.937C-139.624,242.902 -143.932,242.888 -148.24,242.876C-153.422,242.861 -158.604,242.836 -163.785,242.809C-164.756,242.804 -165.727,242.799 -166.728,242.794C-177.924,242.727 -189.038,242.458 -200.199,241.535C-200.694,240.05 -200.694,240.05 -201.199,238.535L-203.199,238.535C-204.691,234.061 -204.942,230.216 -203.012,225.848C-199.514,221.385 -195.377,219.007 -190.262,216.723C-182.42,212.879 -178.864,208.941 -175.848,200.741C-174.841,197.316 -174.811,193.957 -174.873,190.423C-174.876,189.244 -174.876,189.244 -174.878,188.041C-174.888,185.398 -174.92,182.756 -174.953,180.113C-174.966,178.187 -174.978,176.26 -174.989,174.334C-175.034,167.734 -175.116,161.135 -175.199,154.535C-175.229,152.049 -175.258,149.563 -175.287,147.077C-175.494,129.953 -175.754,112.83 -176.033,95.707C-176.127,89.942 -176.215,84.177 -176.302,78.413C-176.388,72.748 -176.476,67.083 -176.567,61.418C-176.621,58.079 -176.673,54.741 -176.723,51.402C-176.953,34.743 -176.953,34.743 -177.565,18.095C-177.65,16.326 -177.65,16.326 -177.737,14.522C-178.706,8.261 -182.379,5.072 -187.012,1.16C-190.393,-0.564 -193.327,-1.294 -197.051,-1.875C-199.75,-2.616 -201.223,-3.472 -203.199,-5.465C-203.801,-8.023 -203.801,-8.023 -203.824,-10.902C-203.858,-11.85 -203.891,-12.797 -203.926,-13.773C-203.199,-16.465 -203.199,-16.465 -200.639,-18.608C-196.722,-20.722 -193.756,-20.989 -189.428,-20.871C-188.673,-20.867 -187.917,-20.863 -187.139,-20.859C-185.505,-20.847 -183.872,-20.826 -182.238,-20.796C-179.637,-20.749 -177.037,-20.727 -174.436,-20.711C-168.898,-20.672 -163.361,-20.601 -157.824,-20.527C-151.436,-20.446 -145.047,-20.38 -138.658,-20.336C-136.124,-20.313 -133.59,-20.271 -131.055,-20.228C-121.922,-20.123 -113.492,-20.828 -104.553,-22.748C-70.33,-30.06 -27.337,-22.474 0,0ZM-111.199,6.535C-112.448,8.878 -112.448,8.878 -113.387,11.223C-113.71,11.99 -114.034,12.757 -114.367,13.547C-114.642,14.203 -114.916,14.859 -115.199,15.535C-115.529,16.195 -115.859,16.855 -116.199,17.535C-116.293,20.617 -116.325,23.676 -116.313,26.758C-116.313,27.714 -116.313,28.671 -116.313,29.656C-116.312,32.826 -116.305,35.997 -116.297,39.168C-116.295,41.362 -116.294,43.557 -116.293,45.751C-116.289,51.534 -116.279,57.318 -116.268,63.102C-116.258,69 -116.253,74.898 -116.248,80.797C-116.237,92.376 -116.22,103.956 -116.199,115.535C-113.665,115.552 -111.132,115.564 -108.598,115.574C-107.888,115.579 -107.178,115.585 -106.447,115.59C-84.379,115.653 -64.655,107.681 -48.875,92.371C-38.67,81.556 -37.617,70.083 -37.887,55.879C-38.384,44.189 -42.237,33.559 -48.199,23.535C-48.772,22.555 -48.772,22.555 -49.355,21.555C-55.475,12.983 -69.176,6.848 -79.199,4.535C-80.891,4.123 -80.891,4.123 -82.617,3.703C-98.604,-0.681 -98.604,-0.681 -111.199,6.535Z" style="fill:rgb(228,212,174);fill-rule:nonzero;"/>
    </g>
    <g transform="matrix(1,0,0,1,1143.91,1203.85)">
        <path d="M0,0C0.805,-0.003 1.61,-0.007 2.44,-0.01C5.104,-0.02 7.768,-0.022 10.432,-0.023C12.281,-0.026 14.13,-0.029 15.98,-0.033C19.857,-0.039 23.734,-0.041 27.611,-0.04C32.584,-0.04 37.558,-0.054 42.531,-0.071C46.351,-0.082 50.17,-0.084 53.989,-0.083C55.823,-0.085 57.657,-0.089 59.491,-0.097C62.053,-0.107 64.614,-0.104 67.176,-0.098C67.936,-0.103 68.697,-0.109 69.481,-0.115C73.233,-0.092 74.884,0.009 78.088,2.145C78.597,3.956 78.597,3.956 78.771,6.141C78.836,6.946 78.9,7.75 78.966,8.578C79.166,12.791 79.193,16.991 79.15,21.208C79.146,22.073 79.141,22.939 79.137,23.831C79.125,25.936 79.107,28.04 79.088,30.145C75.996,31.691 73.494,31.439 70.088,31.145C67.65,29.27 67.65,29.27 66.088,27.145L66.088,25.145C58.506,22.397 51.489,21.63 43.463,21.458C39.709,21.355 35.955,21.252 32.088,21.145L32.088,51.145C37.904,51.486 37.904,51.486 43.838,51.833C45.054,51.912 46.271,51.992 47.524,52.074C48.489,52.122 49.453,52.17 50.447,52.219C51.432,52.277 52.416,52.335 53.431,52.394C56.586,52.099 57.846,51.351 60.088,49.145C60.418,48.155 60.748,47.165 61.088,46.145C67.838,45.02 67.838,45.02 70.088,46.145C71.87,51.491 71.313,57.28 71.328,62.879C71.338,65.137 71.369,67.395 71.4,69.653C71.407,71.088 71.412,72.523 71.416,73.958C71.425,75.264 71.435,76.569 71.444,77.915C71.088,81.145 71.088,81.145 69.759,83.079C67.204,84.71 65.041,84.397 62.088,84.145C58.871,82.537 58.441,79.359 57.088,76.145C54.527,73.584 53.422,73.849 49.861,73.731C48.932,73.696 48.003,73.66 47.046,73.623C45.273,73.572 45.273,73.572 43.463,73.52C39.709,73.397 35.955,73.273 32.088,73.145L32.088,115.145C40.689,114.929 40.689,114.929 49.463,114.708C51.251,114.685 53.04,114.663 54.882,114.64C64.008,114.36 69.732,113.423 76.299,106.456C78.625,103.452 80.476,100.588 82.088,97.145C85.463,96.958 85.463,96.958 89.088,97.145C91.228,100.355 91.318,100.967 91.135,104.61C91.093,105.488 91.052,106.365 91.01,107.27C90.953,108.198 90.896,109.126 90.838,110.083C90.787,111.025 90.736,111.967 90.684,112.937C90.274,119.779 89.519,126.434 88.088,133.145C83.177,134.09 78.39,134.399 73.408,134.582C72.131,134.633 72.131,134.633 70.829,134.686C68.029,134.797 65.228,134.901 62.428,135.005C60.989,135.059 60.989,135.059 59.521,135.114C54.452,135.303 49.382,135.487 44.312,135.667C39.077,135.854 33.843,136.06 28.609,136.27C24.58,136.428 20.55,136.572 16.521,136.712C14.59,136.782 12.66,136.857 10.73,136.937C8.033,137.049 5.336,137.14 2.638,137.226C1.843,137.264 1.048,137.301 0.228,137.339C-4.341,137.461 -7.365,137.147 -10.912,134.145C-11.858,130.428 -12.729,126.658 -10.912,123.145C-5.69,119.145 -5.69,119.145 -2.912,119.145C-0.982,114.385 0.215,110.674 0.221,105.512C0.223,104.334 0.225,103.155 0.227,101.941C0.22,100 0.22,100 0.213,98.02C0.211,97.021 0.211,97.021 0.209,96.001C0.183,83.608 -0.055,71.221 -0.35,58.833C-0.369,57.984 -0.389,57.135 -0.409,56.26C-0.524,51.36 -0.665,46.462 -0.834,41.565C-0.887,39.917 -0.932,38.269 -0.971,36.62C-1.028,34.155 -1.11,31.692 -1.197,29.227C-1.209,28.487 -1.221,27.746 -1.234,26.983C-1.439,22.123 -2.427,19.543 -5.912,16.145C-6.985,15.568 -8.057,14.99 -9.162,14.395C-11.912,12.145 -11.912,12.145 -12.33,9.966C-12.356,6.728 -12.374,4.069 -10.912,1.145C-7.231,-0.082 -3.833,-0.002 0,0Z" style="fill:rgb(228,212,174);fill-rule:nonzero;"/>
    </g>
    <g transform="matrix(1,0,0,1,1095,1206)">
        <path d="M0,0C1.25,6.625 1.25,6.625 -1,10C-3.327,11.015 -5.66,12.015 -8,13C-9.957,14.55 -10.874,15.397 -11.389,17.862C-11.395,18.564 -11.401,19.266 -11.408,19.989C-11.429,21.203 -11.429,21.203 -11.451,22.44C-11.451,23.324 -11.451,24.207 -11.452,25.118C-11.463,26.052 -11.475,26.985 -11.487,27.947C-11.521,31.042 -11.531,34.136 -11.539,37.23C-11.551,39.382 -11.564,41.533 -11.577,43.684C-11.599,48.2 -11.609,52.715 -11.611,57.23C-11.616,63.006 -11.667,68.781 -11.73,74.557C-11.771,79.003 -11.78,83.449 -11.781,87.896C-11.786,90.025 -11.803,92.153 -11.832,94.282C-11.869,97.267 -11.861,100.25 -11.842,103.235C-11.863,104.109 -11.883,104.982 -11.904,105.882C-11.801,111.956 -9.999,115.064 -5.892,119.496C-3.893,121.085 -2.497,121.599 0,122C1.125,128.625 1.125,128.625 0,132C-5.809,133.25 -11.543,133.144 -17.453,133.133C-18.55,133.134 -19.646,133.135 -20.776,133.136C-23.086,133.136 -25.395,133.135 -27.705,133.13C-31.251,133.125 -34.797,133.13 -38.344,133.137C-40.589,133.136 -42.833,133.135 -45.078,133.133C-46.143,133.135 -47.207,133.137 -48.304,133.139C-49.286,133.136 -50.267,133.133 -51.278,133.129C-52.144,133.129 -53.01,133.128 -53.902,133.127C-56,133 -56,133 -58,132C-58.813,128.625 -58.813,128.625 -59,125C-57.468,122.566 -55.437,121.636 -53,120.063C-50.053,118.037 -48.703,117.077 -47,114C-46.529,111.03 -46.511,108.081 -46.488,105.078C-46.461,103.788 -46.461,103.788 -46.434,102.472C-46.38,99.731 -46.346,96.991 -46.313,94.25C-46.279,92.389 -46.245,90.529 -46.209,88.668C-46.124,84.112 -46.057,79.556 -46,75C-46.834,75.03 -47.669,75.061 -48.528,75.092C-51.734,75.206 -54.94,75.318 -58.146,75.427C-60.172,75.497 -62.197,75.571 -64.223,75.645C-75.169,76.015 -86.028,76 -97,76L-97,116C-96.01,116.33 -95.02,116.66 -94,117C-93.567,117.454 -93.134,117.908 -92.688,118.375C-90.413,120.565 -87.844,121.673 -85,123L-85,132C-88.856,133.285 -92.498,133.143 -96.516,133.133C-97.364,133.134 -98.212,133.135 -99.085,133.136C-100.888,133.136 -102.69,133.135 -104.492,133.13C-107.198,133.125 -109.904,133.13 -112.609,133.137C-122.784,133.14 -132.858,132.852 -143,132C-144.125,125.375 -144.125,125.375 -143,122C-141.044,120.628 -139.003,119.53 -136.91,118.379C-134.654,116.75 -134.05,115.555 -133,113C-132.749,111.042 -132.749,111.042 -132.86,108.997C-132.88,108.211 -132.899,107.425 -132.919,106.615C-132.951,105.761 -132.984,104.908 -133.017,104.028C-133.055,102.669 -133.055,102.669 -133.095,101.282C-133.183,98.285 -133.286,95.289 -133.391,92.293C-133.457,90.208 -133.522,88.123 -133.587,86.038C-133.725,81.666 -133.87,77.294 -134.021,72.922C-134.214,67.327 -134.389,61.732 -134.559,56.136C-134.691,51.828 -134.832,47.521 -134.976,43.213C-135.044,41.151 -135.109,39.089 -135.172,37.026C-135.261,34.137 -135.362,31.249 -135.466,28.36C-135.49,27.513 -135.514,26.665 -135.539,25.792C-135.73,20.874 -136.449,16.676 -138,12C-139.65,11.67 -141.3,11.34 -143,11C-144.125,5.375 -144.125,5.375 -143,2C-140.032,0.516 -136.971,0.761 -133.711,0.684C-132.975,0.663 -132.239,0.642 -131.48,0.621C-129.912,0.577 -128.343,0.536 -126.774,0.497C-124.433,0.439 -122.091,0.373 -119.75,0.307C-112.181,0.099 -104.611,-0.049 -97.039,-0.09C-95.755,-0.097 -94.47,-0.105 -93.147,-0.113C-90,0 -90,0 -87,1C-85.75,7.625 -85.75,7.625 -88,11C-90.325,12.02 -92.658,13.021 -95,14C-96.527,17.055 -96.24,20.276 -96.316,23.633C-96.337,24.385 -96.358,25.136 -96.379,25.911C-96.445,28.316 -96.504,30.72 -96.563,33.125C-96.606,34.754 -96.649,36.383 -96.693,38.012C-96.801,42.008 -96.902,46.004 -97,50C-96.131,49.994 -95.262,49.988 -94.367,49.982C-84.09,49.945 -73.834,50.182 -63.563,50.5C-61.945,50.548 -60.327,50.597 -58.709,50.645C-54.806,50.761 -50.903,50.88 -47,51C-47.089,46.426 -47.229,41.857 -47.415,37.285C-47.471,35.733 -47.514,34.18 -47.542,32.627C-47.442,23.573 -47.442,23.573 -50.842,15.511C-52.953,13.655 -52.953,13.655 -55.199,12.302C-57,11 -57,11 -58.063,7.25C-58,4 -58,4 -57,1C-53.786,-0.607 -50.266,-0.243 -46.73,-0.316C-45.898,-0.337 -45.067,-0.358 -44.209,-0.379C-42.44,-0.423 -40.67,-0.464 -38.901,-0.503C-36.236,-0.561 -33.572,-0.627 -30.908,-0.693C-4.041,-1.347 -4.041,-1.347 0,0Z" style="fill:rgb(228,212,174);fill-rule:nonzero;"/>
    </g>
    <g transform="matrix(1,0,0,1,806.241,1203.87)">
        <path d="M0,0C0.865,-0.003 1.731,-0.006 2.622,-0.009C4.043,-0.006 4.043,-0.006 5.493,-0.003C6.495,-0.005 7.497,-0.006 8.529,-0.008C11.855,-0.01 15.182,-0.003 18.509,0.004C20.214,0.007 20.214,0.007 21.953,0.009C39.483,0.037 57.011,0.178 74.539,0.449C76.972,0.486 79.406,0.52 81.839,0.551C85.249,0.596 88.658,0.654 92.067,0.715C93.08,0.727 94.092,0.738 95.135,0.75C104.177,0.942 104.177,0.942 107.759,3.129C111.189,9.563 111.044,15.232 110.571,22.379C110.527,23.359 110.482,24.339 110.437,25.348C109.967,33.838 109.967,33.838 107.759,37.129C103.81,38.247 101.626,38.498 97.821,36.879C97.141,36.302 96.46,35.724 95.759,35.129L95.759,32.129L93.759,32.129C93.264,30.644 93.264,30.644 92.759,29.129C85.032,23.067 76.094,23.34 66.759,23.129C66.819,23.926 66.879,24.723 66.94,25.544C67.866,38.961 68.264,52.397 68.689,65.837C68.798,69.302 68.913,72.766 69.028,76.23C69.503,90.531 69.925,104.819 69.759,119.129C71.404,119.352 71.404,119.352 73.083,119.579C80.547,120.697 80.547,120.697 83.134,123.754C84.122,127.509 83.557,130.322 82.759,134.129C79.51,136.295 78.587,136.384 74.832,136.404C73.83,136.414 72.829,136.423 71.797,136.433C70.716,136.432 69.635,136.431 68.521,136.43C67.407,136.434 66.293,136.439 65.146,136.443C62.788,136.449 60.43,136.449 58.073,136.445C54.471,136.442 50.87,136.465 47.269,136.491C44.978,136.493 42.687,136.494 40.396,136.493C39.32,136.502 38.245,136.511 37.137,136.521C31.673,136.487 27.367,136.437 22.759,133.129C21.571,129.817 21.571,129.817 21.759,126.129C25.211,120.795 29.652,117.165 35.759,115.129C35.52,113.829 35.52,113.829 35.277,112.503C34.793,109.35 34.566,106.339 34.462,103.154C34.402,101.413 34.402,101.413 34.341,99.638C34.302,98.391 34.263,97.144 34.224,95.86C34.181,94.551 34.138,93.243 34.093,91.895C34.003,89.117 33.915,86.339 33.829,83.561C33.721,80.081 33.606,76.601 33.489,73.121C32.922,56.121 32.617,39.14 32.759,22.129C21.334,21.64 12.512,21.265 3.384,29.192C2.23,30.568 1.13,31.991 0.071,33.442C-2.735,35.49 -3.628,35.253 -6.991,34.879C-8.411,34.65 -9.83,34.407 -11.241,34.129C-14.506,24.334 -12.042,12.204 -8.327,2.821C-6.352,-0.255 -3.331,0.004 0,0Z" style="fill:rgb(228,212,174);fill-rule:nonzero;"/>
    </g>
</svg>
