<?xml version="1.0" encoding="UTF-8" standalone="no"?>
<!DOCTYPE svg PUBLIC "-//W3C//DTD SVG 1.1//EN" "http://www.w3.org/Graphics/SVG/1.1/DTD/svg11.dtd">
<svg width="100%" height="100%" viewBox="0 0 2048 2048" version="1.1" xmlns="http://www.w3.org/2000/svg" xmlns:xlink="http://www.w3.org/1999/xlink" xml:space="preserve" xmlns:serif="http://www.serif.com/" style="fill-rule:evenodd;clip-rule:evenodd;stroke-linejoin:round;stroke-miterlimit:2;">
    <g transform="matrix(1,0,0,1,1824.12,1635.69)">
        <path d="M0,0C1.353,0.003 1.353,0.003 2.733,0.006C16.304,0.052 29.555,0.494 42.875,3.313C43.685,3.479 44.495,3.645 45.329,3.816C55.344,5.936 65.062,8.896 74.75,12.188C75.652,12.491 76.555,12.794 77.484,13.106C82.942,15.027 88.081,17.337 93.231,19.954C93.873,20.277 94.515,20.601 95.177,20.934C96.744,21.725 98.31,22.518 99.875,23.313C100.076,33.231 100.259,43.149 100.422,53.068C100.498,57.675 100.579,62.281 100.674,66.886C100.766,71.334 100.842,75.782 100.907,80.23C100.935,81.924 100.968,83.618 101.007,85.312C101.06,87.691 101.094,90.07 101.124,92.449C101.144,93.144 101.164,93.839 101.185,94.555C101.218,99.59 100.173,102.927 97.875,107.313C95.23,108.635 93.197,108.409 90.25,108.375C89.247,108.366 88.244,108.357 87.211,108.348C86.44,108.336 85.669,108.324 84.875,108.313C84.545,107.323 84.215,106.333 83.875,105.313C83.108,105.044 82.341,104.776 81.551,104.5C77.882,102.872 77.007,100.783 75.063,97.313C71.493,91.175 67.495,85.719 62.875,80.313C62.211,79.503 61.547,78.693 60.863,77.859C44.418,58.526 20.225,45.208 -5.201,43.144C-31.901,41.677 -56.073,51.837 -75.839,69.305C-103.129,94.259 -117.404,130.994 -119.101,167.491C-120.055,205.836 -106.84,242.842 -80.585,270.829C-63.225,288.812 -39.348,301.046 -14.158,301.734C1.721,301.827 15.002,297.979 29.565,291.732C30.657,291.264 31.749,290.795 32.875,290.313C32.941,278.594 32.774,266.889 32.503,255.173C32.437,252.289 32.378,249.404 32.318,246.52C32.276,244.659 32.234,242.798 32.191,240.938C32.166,239.664 32.166,239.664 32.141,238.365C32.32,229.538 32.32,229.538 29.668,221.5C29.138,221.108 28.608,220.716 28.063,220.313C27.433,219.841 26.804,219.369 26.156,218.883C25.403,218.365 24.651,217.846 23.875,217.313C22.957,216.65 22.039,215.987 21.094,215.305C16.357,211.996 11.891,209.141 6.438,207.188C1.085,205.26 -1.561,202.441 -4.125,197.313C-4.39,193.277 -4.464,190.33 -3.188,186.5C3.802,179.087 17.53,180.17 26.885,179.868C28.277,179.828 29.67,179.789 31.063,179.75C31.78,179.729 32.497,179.709 33.236,179.688C38.115,179.55 42.995,179.428 47.875,179.313C48.831,179.288 49.787,179.263 50.772,179.237C69.378,178.803 88.019,180.119 106.588,181.184C108.815,181.309 111.042,181.424 113.269,181.538C114.613,181.614 115.957,181.689 117.301,181.766C118.46,181.828 119.619,181.89 120.814,181.954C125.338,182.484 128.125,183.739 131.875,186.313C134.16,190.042 134.251,192.955 133.875,197.313C131.72,204.046 126.818,206.219 120.926,209.348C113.028,213.817 105.998,221.215 101.875,229.313C101.644,231.867 101.644,231.867 102.02,234.57C102.12,235.647 102.22,236.723 102.323,237.832C102.444,239.022 102.564,240.211 102.688,241.438C103.837,255.2 104.142,268.922 104.178,282.73C104.184,285.027 104.197,287.324 104.215,289.621C104.239,292.891 104.242,296.16 104.238,299.43C104.247,300.409 104.257,301.388 104.266,302.397C104.226,308.383 103.473,312.886 100.875,318.313C98.145,320.273 98.145,320.273 94.688,321.688C94.04,321.959 93.393,322.231 92.726,322.512C91.264,323.123 89.797,323.722 88.326,324.312C85.667,325.397 83.048,326.556 80.426,327.727C53.635,339.528 25.219,346.591 -4.125,347.313C-5.341,347.352 -6.556,347.392 -7.809,347.434C-42.695,348.041 -79.591,341.508 -110.285,324.339C-112.25,323.242 -114.235,322.185 -116.223,321.129C-154.362,300.604 -183.333,265.764 -196.126,224.383C-208.427,182.909 -202.673,138.593 -182.679,100.536C-174.747,85.929 -164.637,73.242 -153.125,61.313C-152.288,60.413 -151.452,59.513 -150.59,58.586C-121.345,27.973 -77.748,8.282 -36.125,2.313C-34.997,2.14 -33.869,1.967 -32.707,1.788C-21.786,0.246 -11.019,-0.046 0,0Z" style="fill:rgb(211,116,57);fill-rule:nonzero;"/>
    </g>
    <g transform="matrix(1,0,0,1,1289.45,1638.95)">
        <path d="M0,0C2.27,0.032 4.541,0.042 6.812,0.024C22.653,-0.07 22.653,-0.07 28.068,4.807C30.767,7.692 33.003,10.836 35.202,14.11C37.401,17.268 39.949,20.103 42.49,22.987C43.49,24.151 44.489,25.316 45.486,26.483C49.207,30.817 52.952,35.13 56.697,39.444C60.828,44.206 64.934,48.989 69.033,53.78C72.689,58.051 76.367,62.303 80.052,66.549C86.747,74.263 93.392,82.018 100.032,89.779C105.685,96.386 111.352,102.982 117.052,109.549C123.747,117.263 130.392,125.018 137.032,132.779C143.229,140.022 149.448,147.245 155.697,154.444C159.828,159.206 163.934,163.989 168.033,168.78C171.689,173.051 175.367,177.303 179.052,181.549C188.97,192.978 198.79,204.487 208.552,216.049C209.899,187.572 209.994,159.065 210.217,130.561C210.242,127.384 210.268,124.207 210.293,121.03C210.31,118.932 210.326,116.833 210.342,114.735C210.436,102.449 210.615,90.174 210.979,77.894C211.104,73.432 211.189,68.969 211.278,64.506C211.335,62.222 211.414,59.939 211.515,57.656C212.526,46.245 212.526,46.245 208.192,36.288C205.02,34.319 202.115,33.146 198.552,32.049C197.167,31.513 197.167,31.513 195.755,30.966C193.209,29.999 190.654,29.163 188.052,28.362C177.69,25.147 177.69,25.147 174.552,21.049C172.696,17.337 173.111,13.102 173.552,9.049C175.705,4.833 178.454,3.243 182.861,1.667C189.014,0.255 195.457,0.668 201.74,0.721C203.327,0.724 204.914,0.726 206.5,0.727C209.822,0.731 213.144,0.746 216.466,0.768C220.677,0.796 224.888,0.807 229.099,0.812C233.166,0.817 237.234,0.831 241.302,0.846C242.433,0.849 242.433,0.849 243.586,0.852C276.467,0.958 276.467,0.958 287.552,5.049C290.032,8.77 290.078,11.74 289.552,16.049C286.734,23.013 279.651,27.12 273.455,30.831C271.285,32.159 271.285,32.159 268.552,34.612C265.548,37.052 262.842,38.429 259.287,39.862C256.84,41.537 256.481,43.264 255.552,46.049C255.224,48.484 255.224,48.484 255.215,51.033C255.179,52.51 255.179,52.51 255.142,54.017C255.125,55.091 255.108,56.165 255.091,57.271C255.065,58.418 255.04,59.565 255.013,60.747C254.945,63.925 254.884,67.104 254.828,70.284C254.764,73.714 254.69,77.144 254.617,80.574C254.492,86.517 254.374,92.461 254.26,98.404C254.096,107.005 253.92,115.605 253.741,124.206C253.451,138.17 253.169,152.134 252.893,166.098C252.625,179.645 252.355,193.193 252.081,206.74C252.064,207.574 252.048,208.408 252.03,209.267C251.749,223.177 251.465,237.086 251.179,250.996C251.003,259.574 250.831,268.152 250.663,276.73C250.548,282.609 250.43,288.488 250.31,294.366C250.241,297.757 250.173,301.148 250.109,304.54C250.039,308.218 249.963,311.895 249.887,315.573C249.858,317.178 249.858,317.178 249.829,318.814C249.716,323.981 249.429,328.954 248.552,334.049C245.885,334.938 244.065,335.23 241.306,335.366C240.474,335.408 239.642,335.45 238.785,335.494C235.193,335.652 231.601,335.806 228.009,335.945C225.93,336.033 223.852,336.157 221.775,336.288C217.043,336.496 214.39,336.539 210.24,334.112C207.424,331.199 205.035,327.878 202.603,324.643C200.22,321.629 197.663,318.802 195.052,315.987C194.572,315.469 194.093,314.951 193.598,314.418C193.128,313.911 192.658,313.404 192.173,312.881C187.955,308.324 183.899,303.638 179.88,298.905C173.808,291.765 167.604,284.79 161.22,277.928C156.974,273.346 152.897,268.631 148.849,263.874C143.02,257.031 137.097,250.308 130.998,243.706C126.848,239.198 122.845,234.574 118.88,229.905C113.331,223.38 107.69,216.985 101.838,210.73C98.814,207.476 95.952,204.147 93.177,200.674C88.943,195.393 84.355,190.512 79.707,185.599C75.551,181.182 71.685,176.61 67.9,171.87C63.98,167.16 59.751,162.74 55.56,158.272C52.707,155.228 49.94,152.12 47.216,148.959C45.237,146.687 43.206,144.465 41.177,142.237C38.105,138.838 35.168,135.373 32.302,131.799C27.655,126.052 22.646,120.692 17.591,115.307C14.558,112.072 11.618,108.765 8.724,105.405C8.026,104.597 7.307,103.804 6.552,103.049C5.936,132.301 5.472,161.549 5.271,190.807C5.261,192.188 5.252,193.569 5.242,194.95C5.164,206.135 5.093,217.319 5.026,228.503C4.979,236.308 4.93,244.113 4.875,251.918C4.842,256.506 4.817,261.094 4.792,265.683C4.776,268.051 4.759,270.42 4.742,272.788C4.738,273.862 4.733,274.936 4.729,276.042C4.721,277.03 4.712,278.017 4.704,279.035C4.699,279.888 4.693,280.741 4.688,281.62C4.545,284.175 4.112,286.555 3.552,289.049C4.128,289.302 4.705,289.555 5.298,289.815C7.819,291.195 9.548,292.806 11.615,294.799C17.521,300.161 24.199,303.727 31.552,306.737C34.283,307.932 35.787,308.695 37.552,311.049C39.094,315.676 39.194,320.223 38.552,325.049C36.027,328.462 34.553,329.716 30.552,331.049C20.048,332.605 9.07,332.64 -1.483,331.556C-7.352,331.011 -13.182,330.865 -19.073,330.803C-21.265,330.77 -23.458,330.737 -25.651,330.704C-29.054,330.656 -32.457,330.612 -35.86,330.573C-39.181,330.533 -42.502,330.481 -45.823,330.428C-47.326,330.416 -47.326,330.416 -48.86,330.403C-67.674,330.078 -67.674,330.078 -73.448,325.049C-76.272,320.611 -76.077,315.13 -75.448,310.049C-73.888,306.632 -72.442,305.475 -69.014,304.006C-66.172,302.977 -63.314,302.009 -60.448,301.049C-54.199,298.869 -50.639,295.713 -46.933,290.216C-43.993,283.948 -44.494,277.215 -44.557,270.433C-44.547,268.794 -44.532,267.155 -44.515,265.516C-44.482,262.083 -44.467,258.651 -44.465,255.218C-44.457,250.249 -44.377,245.283 -44.269,240.315C-44.252,239.515 -44.235,238.715 -44.217,237.89C-44.182,236.264 -44.146,234.638 -44.111,233.012C-44.022,228.817 -43.95,224.622 -43.877,220.427C-43.862,219.574 -43.847,218.722 -43.832,217.843C-43.801,216.093 -43.771,214.342 -43.741,212.591C-43.677,208.921 -43.612,205.25 -43.547,201.58C-43.393,192.911 -43.241,184.242 -43.091,175.572C-42.937,166.719 -42.78,157.866 -42.622,149.013C-42.484,141.309 -42.349,133.605 -42.214,125.901C-42.135,121.344 -42.055,116.787 -41.973,112.23C-41.942,110.488 -41.911,108.746 -41.88,107.004C-41.864,106.16 -41.849,105.315 -41.834,104.445C-41.722,98.101 -41.634,91.756 -41.552,85.412C-41.487,80.733 -41.358,76.061 -41.199,71.385C-41.144,69.137 -41.089,66.888 -41.034,64.64C-40.986,63.662 -40.938,62.684 -40.889,61.677C-40.764,54.667 -42.821,51.18 -47.448,46.049C-48.562,44.502 -48.562,44.502 -49.698,42.924C-56.737,35.565 -67.263,31.478 -76.295,27.018C-77.191,26.562 -78.087,26.105 -79.01,25.635C-79.816,25.234 -80.622,24.832 -81.452,24.418C-83.757,22.837 -84.478,21.643 -85.448,19.049C-86.117,14.263 -86.153,10.303 -83.76,6.049C-77.338,0.495 -68.404,0.925 -60.295,0.733C-59.53,0.712 -58.766,0.691 -57.977,0.67C-55.489,0.604 -52.999,0.544 -50.51,0.487C-49.653,0.466 -48.796,0.446 -47.913,0.425C-31.942,0.048 -15.974,-0.271 0,0Z" style="fill:rgb(211,116,57);fill-rule:nonzero;"/>
    </g>
    <g transform="matrix(1,0,0,1,1092.52,1637.88)">
        <path d="M0,0C2.539,-0.003 5.079,-0.006 7.618,-0.011C11.673,-0.017 15.727,-0.017 19.781,-0.012C21.296,-0.011 22.811,-0.011 24.327,-0.014C26.425,-0.016 28.524,-0.012 30.622,-0.007C31.806,-0.006 32.99,-0.005 34.209,-0.004C37.382,0.119 40.362,0.527 43.478,1.122C45.726,6.726 47.291,11.117 45.478,17.122C42.143,21.631 38.833,24.521 34.103,27.622C23.372,34.604 23.372,34.604 16.478,45.122C15.922,48.586 15.954,51.991 15.997,55.493C15.991,57.04 15.991,57.04 15.986,58.617C15.98,62.065 16.002,65.511 16.023,68.958C16.025,71.432 16.024,73.906 16.022,76.38C16.021,81.702 16.032,87.024 16.055,92.347C16.087,100.042 16.098,107.737 16.103,115.432C16.111,127.918 16.138,140.404 16.176,152.889C16.213,165.016 16.241,177.142 16.258,189.268C16.259,190.016 16.26,190.764 16.261,191.535C16.266,195.287 16.271,199.039 16.276,202.791C16.318,233.902 16.388,265.012 16.478,296.122C20.175,297.983 23.915,299.747 27.665,301.497C28.331,301.812 28.996,302.127 29.682,302.451C33.321,304.162 36.965,305.697 40.728,307.122C43.973,308.574 44.496,309.15 46.603,312.31C47.655,316.897 47.875,320.6 46.478,325.122C43.753,328.657 41.814,330.324 37.478,331.122C34.659,331.195 31.866,331.215 29.048,331.185C28.221,331.181 27.394,331.177 26.542,331.174C23.02,331.157 19.499,331.129 15.977,331.102C6.571,331.035 -2.7,331.128 -12.082,331.899C-18.052,332.287 -24.018,332.209 -29.998,332.147C-32.777,332.12 -35.556,332.104 -38.335,332.089C-43.658,332.056 -48.979,331.992 -54.301,331.915C-56.506,331.886 -58.712,331.865 -60.918,331.851C-64.152,331.83 -67.386,331.783 -70.62,331.732C-71.597,331.731 -72.574,331.729 -73.581,331.728C-79.642,331.599 -84.51,330.71 -89.522,327.122C-92.576,323.051 -92.793,319.992 -92.14,315.15C-91.03,311.504 -89.494,308.795 -86.333,306.609C-85.501,306.199 -84.669,305.79 -83.811,305.369C-82.896,304.906 -81.981,304.444 -81.038,303.968C-79.607,303.271 -79.607,303.271 -78.147,302.56C-65.922,296.901 -65.922,296.901 -58.522,286.122C-57.957,281.555 -58.036,277.024 -58.099,272.428C-58.104,271.034 -58.107,269.639 -58.108,268.245C-58.117,264.444 -58.152,260.643 -58.191,256.842C-58.229,252.774 -58.245,248.705 -58.264,244.636C-58.313,235.019 -58.402,225.402 -58.497,215.785C-58.531,212.282 -58.561,208.78 -58.592,205.277C-58.792,182.52 -59.059,159.763 -59.357,137.006C-59.451,129.766 -59.539,122.526 -59.625,115.285C-59.721,107.292 -59.821,99.298 -59.923,91.304C-59.966,87.968 -60.007,84.631 -60.046,81.294C-60.093,77.401 -60.143,73.507 -60.197,69.614C-60.215,68.205 -60.233,66.795 -60.248,65.386C-60.299,60.963 -60.402,56.544 -60.522,52.122C-60.528,51.448 -60.533,50.774 -60.539,50.079C-60.557,48.032 -60.612,45.988 -60.674,43.942C-60.696,42.74 -60.718,41.537 -60.74,40.298C-61.798,36.003 -63.699,34.954 -67.397,32.685C-69.765,31.483 -72.14,30.295 -74.522,29.122C-76.598,27.799 -78.643,26.426 -80.647,24.997C-81.516,24.397 -82.385,23.796 -83.28,23.177C-86.429,20.291 -88.284,17.217 -88.772,12.927C-88.302,9.296 -87.902,7.547 -85.397,4.747C-80.136,1.773 -74.893,0.875 -68.909,0.708C-67.927,0.679 -67.927,0.679 -66.925,0.649C-64.686,0.588 -62.448,0.542 -60.21,0.497C-59.027,0.47 -59.027,0.47 -57.82,0.442C-38.551,0.001 -19.273,0.017 0,0Z" style="fill:rgb(211,116,57);fill-rule:nonzero;"/>
    </g>
    <g transform="matrix(1,0,0,1,804.75,1628.56)">
        <path d="M0,0C0.83,0.006 1.659,0.012 2.514,0.018C14.539,0.103 26.165,0.897 38.011,3.053C41.824,3.708 45.655,4.15 49.5,4.563C50.251,4.644 51.002,4.725 51.776,4.808C59.821,5.603 67.896,5.834 75.976,6.008C76.993,6.036 78.01,6.065 79.059,6.094C79.964,6.112 80.87,6.131 81.802,6.15C84.41,6.456 86.05,7.019 88.25,8.438C89.262,10.723 89.262,10.723 89.938,13.5C90.284,14.848 90.284,14.848 90.637,16.223C92.438,25.667 92.522,35.172 92.75,44.75C92.959,53.466 93.196,62.146 94.024,70.832C95.254,85.032 95.254,85.032 91.25,91.438C87.851,94.027 85.004,94.704 80.813,94.625C75.968,93.861 73.79,91.584 70.855,87.797C68.731,84.675 66.794,81.474 64.902,78.207C55.843,63.022 43.082,44.56 25,39.852C21.515,39.327 18.078,39.253 14.563,39.25C13.906,39.238 13.249,39.226 12.572,39.213C2.176,39.183 -6.244,42.195 -15.5,46.75C-17.002,47.461 -17.002,47.461 -18.535,48.186C-30.371,53.915 -38.552,62.497 -43.875,74.688C-45.704,82.527 -43.916,88.713 -39.75,95.438C-39.227,96.293 -38.703,97.149 -38.164,98.031C-24.304,118.851 2.376,127.302 24.187,137.262C30.689,140.234 37.113,143.308 43.472,146.574C47.851,148.801 52.305,150.787 56.813,152.736C70.537,158.695 81.36,166.069 92.25,176.438C92.874,176.975 93.498,177.513 94.141,178.066C108.372,190.855 112.345,211.323 113.438,229.57C113.721,243.7 112.492,257.624 106.25,270.438C105.626,271.733 105.626,271.733 104.989,273.054C99.463,284.39 94.085,295.302 85.25,304.438C84.608,305.144 83.966,305.85 83.305,306.578C74.635,315.774 64.292,321.863 52.875,327.063C52.267,327.342 51.658,327.621 51.032,327.908C40.055,332.922 29.062,336.888 17.25,339.438C16.485,339.61 15.72,339.782 14.931,339.959C-25.396,348.644 -68.927,340.839 -105.75,323.438C-106.622,323.044 -107.493,322.65 -108.391,322.244C-112.891,320.174 -115.186,318.384 -117.25,313.813C-117.783,312.366 -118.287,310.908 -118.75,309.438C-119.245,307.953 -119.245,307.953 -119.75,306.438C-119.982,303.818 -120.163,301.219 -120.297,298.594C-120.359,297.407 -120.359,297.407 -120.423,296.196C-120.852,287.361 -120.971,278.528 -120.99,269.685C-121,266.912 -121.031,264.14 -121.063,261.367C-121.178,241.843 -121.178,241.843 -116.125,233.875C-112.476,231.667 -108.98,231.261 -104.75,231.438C-98.34,233.533 -94.677,238.396 -91.688,244.207C-91.034,245.551 -90.389,246.899 -89.75,248.25C-89.052,249.679 -88.353,251.107 -87.652,252.535C-87.322,253.213 -86.992,253.892 -86.652,254.59C-76.406,275.576 -60.982,291.621 -38.75,299.438C-34.015,300.654 -29.261,301.525 -24.438,302.313C-23.161,302.524 -21.884,302.736 -20.569,302.955C-4.569,305.446 7.913,304.88 21.375,295.25C31.862,287.06 37.215,280.365 38.926,267.172C40.033,254.417 36.385,245.045 30.313,234.125C29.827,233.244 29.827,233.244 29.332,232.346C19.447,215.177 -1.582,204.778 -19.926,199.789C-31.823,196.551 -42.785,191.094 -53.703,185.474C-55.789,184.418 -57.89,183.402 -60,182.395C-67.592,178.753 -74.431,175.098 -80.75,169.438C-81.727,168.567 -82.704,167.697 -83.711,166.801C-86.761,164.052 -89.782,161.275 -92.75,158.438C-93.596,157.629 -93.596,157.629 -94.459,156.803C-108.454,143.14 -118.826,126.857 -119.079,106.754C-119.074,105.99 -119.068,105.225 -119.063,104.438C-119.058,103.621 -119.054,102.804 -119.05,101.963C-118.566,75.302 -107.811,49.412 -88.566,30.844C-83.35,26.387 -77.653,22.888 -71.75,19.438C-71.172,19.089 -70.593,18.741 -69.997,18.383C-62.437,13.866 -54.721,10.497 -46.375,7.688C-45.574,7.418 -44.774,7.148 -43.949,6.871C-41.23,5.999 -38.499,5.207 -35.75,4.438C-33.873,3.905 -33.873,3.905 -31.959,3.361C-21.22,0.478 -11.081,-0.165 0,0Z" style="fill:rgb(211,116,57);fill-rule:nonzero;"/>
    </g>
    <g transform="matrix(1,0,0,1,552.522,1631.88)">
        <path d="M0,0C2.539,-0.003 5.079,-0.006 7.618,-0.011C11.673,-0.017 15.727,-0.017 19.781,-0.012C21.296,-0.011 22.811,-0.011 24.327,-0.014C26.425,-0.016 28.524,-0.012 30.622,-0.007C31.806,-0.006 32.99,-0.005 34.209,-0.004C37.382,0.119 40.362,0.527 43.478,1.122C45.726,6.726 47.291,11.117 45.478,17.122C42.143,21.631 38.833,24.521 34.103,27.622C23.372,34.604 23.372,34.604 16.478,45.122C15.922,48.586 15.954,51.991 15.997,55.493C15.991,57.04 15.991,57.04 15.986,58.617C15.98,62.065 16.002,65.511 16.023,68.958C16.025,71.432 16.024,73.906 16.022,76.38C16.021,81.702 16.032,87.024 16.055,92.347C16.087,100.042 16.098,107.737 16.103,115.432C16.111,127.918 16.138,140.404 16.176,152.889C16.213,165.016 16.241,177.142 16.258,189.268C16.259,190.016 16.26,190.764 16.261,191.535C16.266,195.287 16.271,199.039 16.276,202.791C16.318,233.902 16.388,265.012 16.478,296.122C20.175,297.983 23.915,299.747 27.665,301.497C28.331,301.812 28.996,302.127 29.682,302.451C33.321,304.162 36.965,305.697 40.728,307.122C43.973,308.574 44.496,309.15 46.603,312.31C47.655,316.897 47.875,320.6 46.478,325.122C43.753,328.657 41.814,330.324 37.478,331.122C34.659,331.195 31.866,331.215 29.048,331.185C28.221,331.181 27.394,331.177 26.542,331.174C23.02,331.157 19.499,331.129 15.977,331.102C6.571,331.035 -2.7,331.128 -12.082,331.899C-18.052,332.287 -24.018,332.209 -29.998,332.147C-32.777,332.12 -35.556,332.104 -38.335,332.089C-43.658,332.056 -48.979,331.992 -54.301,331.915C-56.506,331.886 -58.712,331.865 -60.918,331.851C-64.152,331.83 -67.386,331.783 -70.62,331.732C-71.597,331.731 -72.574,331.729 -73.581,331.728C-79.642,331.599 -84.51,330.71 -89.522,327.122C-92.576,323.051 -92.793,319.992 -92.14,315.15C-91.03,311.504 -89.494,308.795 -86.333,306.609C-85.501,306.199 -84.669,305.79 -83.811,305.369C-82.896,304.906 -81.981,304.444 -81.038,303.968C-79.607,303.271 -79.607,303.271 -78.147,302.56C-65.922,296.901 -65.922,296.901 -58.522,286.122C-57.957,281.555 -58.036,277.024 -58.099,272.428C-58.104,271.034 -58.107,269.639 -58.108,268.245C-58.117,264.444 -58.152,260.643 -58.191,256.842C-58.229,252.774 -58.245,248.705 -58.264,244.636C-58.313,235.019 -58.402,225.402 -58.497,215.785C-58.531,212.282 -58.561,208.78 -58.592,205.277C-58.792,182.52 -59.059,159.763 -59.357,137.006C-59.451,129.766 -59.539,122.526 -59.625,115.285C-59.721,107.292 -59.821,99.298 -59.923,91.304C-59.966,87.968 -60.007,84.631 -60.046,81.294C-60.093,77.401 -60.143,73.507 -60.197,69.614C-60.215,68.205 -60.233,66.795 -60.248,65.386C-60.299,60.963 -60.402,56.544 -60.522,52.122C-60.528,51.448 -60.533,50.774 -60.539,50.079C-60.557,48.032 -60.612,45.988 -60.674,43.942C-60.696,42.74 -60.718,41.537 -60.74,40.298C-61.798,36.003 -63.699,34.954 -67.397,32.685C-69.765,31.483 -72.14,30.295 -74.522,29.122C-76.598,27.799 -78.643,26.426 -80.647,24.997C-81.516,24.397 -82.385,23.796 -83.28,23.177C-86.429,20.291 -88.284,17.217 -88.772,12.927C-88.302,9.296 -87.902,7.547 -85.397,4.747C-80.136,1.773 -74.893,0.875 -68.909,0.708C-67.927,0.679 -67.927,0.679 -66.925,0.649C-64.686,0.588 -62.448,0.542 -60.21,0.497C-59.027,0.47 -59.027,0.47 -57.82,0.442C-38.551,0.001 -19.273,0.017 0,0Z" style="fill:rgb(211,116,57);fill-rule:nonzero;"/>
    </g>
    <g transform="matrix(1,0,0,1,93.625,1629.81)">
        <path d="M0,0C0.801,0.001 1.601,0.001 2.426,0.002C7.158,0.035 11.838,0.283 16.555,0.66C25.943,1.368 35.344,1.546 44.755,1.745C47.897,1.813 51.038,1.891 54.18,1.969C56.193,2.014 58.206,2.058 60.219,2.102C61.15,2.125 62.081,2.149 63.041,2.174C63.916,2.191 64.792,2.208 65.693,2.225C66.836,2.251 66.836,2.251 68.001,2.277C70.469,2.237 70.469,2.237 73.239,1.69C76.629,1.147 79.801,1.079 83.234,1.104C83.883,1.108 84.532,1.112 85.201,1.116C97.366,1.211 109.527,1.558 121.688,1.877C124.885,1.96 128.082,2.037 131.28,2.107C158.039,2.697 183.966,3.619 208.813,14.563C209.641,14.926 210.47,15.289 211.324,15.663C224.439,21.679 239.765,33.611 245.427,47.208C246.358,49.848 247.153,52.5 247.854,55.209C248.371,57.171 248.974,59.084 249.602,61.012C257.312,86.018 251.224,111.611 239.354,134.124C230.452,150.007 214.545,159.623 199.313,168.688C198.586,169.121 197.859,169.555 197.111,170.002C196.08,170.604 196.08,170.604 195.027,171.219C194.419,171.575 193.81,171.932 193.183,172.299C191.269,173.24 189.457,173.745 187.375,174.188C193.178,186.073 193.178,186.073 199.77,197.531C201.006,199.576 202.179,201.624 203.324,203.719C208.606,213.374 214.443,222.499 220.633,231.595C222.557,234.458 224.437,237.347 226.313,240.242C232.648,249.978 238.801,259.374 246.945,267.688C249.371,270.183 251.525,272.775 253.688,275.5C257.993,280.852 262.63,285.839 267.345,290.827C270.446,294.109 273.471,297.415 276.375,300.875C279.54,304.529 282.92,307.115 287.387,309.066C292.9,311.502 295.042,313.55 297.375,319.188C297.938,322.313 297.938,322.313 297.375,325.188C293.123,331.085 287.071,332.58 280.205,333.709C276.331,334.193 272.522,334.382 268.625,334.426C267.898,334.435 267.17,334.445 266.42,334.455C264.072,334.48 261.724,334.493 259.375,334.5C258.174,334.504 258.174,334.504 256.948,334.508C233.981,334.516 209.355,332.308 192.063,315.25C190.818,313.91 189.588,312.556 188.375,311.188C187.52,310.265 187.52,310.265 186.648,309.324C171.134,292.216 160.58,272.046 150.473,251.457C147.428,245.259 144.234,239.151 140.985,233.058C138.822,228.983 136.716,224.888 134.676,220.75C134.228,219.842 133.78,218.935 133.319,218C132.465,216.259 131.616,214.516 130.773,212.77C127.586,205.406 127.586,205.406 121.714,200.569C118.453,200.037 115.289,200.077 111.984,200.09C110.927,200.092 110.927,200.092 109.849,200.094C107.608,200.1 105.366,200.112 103.125,200.125C101.602,200.13 100.078,200.135 98.555,200.139C94.828,200.15 91.102,200.167 87.375,200.188C87.328,208.908 87.293,217.628 87.271,226.348C87.261,230.399 87.247,234.45 87.224,238.5C87.202,242.423 87.19,246.346 87.185,250.269C87.182,251.752 87.174,253.235 87.164,254.717C86.352,275.373 86.352,275.373 93.438,293.688C100.501,299.699 106.959,303.037 115.878,305.451C122.295,307.231 122.295,307.231 124.375,310.188C126.021,315.125 126.088,320.049 124.438,325C119.897,329.815 113.991,331.406 107.512,331.689C105.271,331.709 103.031,331.708 100.79,331.689C99.56,331.695 98.33,331.7 97.062,331.706C93.713,331.716 90.364,331.708 87.015,331.692C83.498,331.678 79.982,331.684 76.465,331.688C70.565,331.691 64.665,331.677 58.765,331.654C51.954,331.627 45.143,331.626 38.331,331.637C31.761,331.648 25.191,331.642 18.621,331.628C15.832,331.622 13.043,331.622 10.254,331.627C6.36,331.633 2.466,331.613 -1.428,331.592C-3.156,331.598 -3.156,331.598 -4.919,331.605C-11.501,331.544 -16.335,331.138 -21.438,326.563C-23.966,321.505 -24.064,316.764 -22.563,311.375C-18.855,305.275 -14.675,304.133 -8.063,302.25C-2.948,300.758 0.064,299.533 3.375,295.188C4.262,294.218 5.149,293.249 6.063,292.25C17.188,277.517 12.485,247.556 12.078,230.115C11.999,226.728 11.932,223.342 11.867,219.955C11.683,210.982 11.488,202.028 10.844,193.074C10.114,182.539 10.224,171.993 10.25,161.438C10.251,160.36 10.252,159.283 10.254,158.173C10.31,115.457 10.31,115.457 11.871,104.8C12.739,98.578 12.851,92.337 12.938,86.063C12.948,85.345 12.958,84.627 12.968,83.887C13.083,68.232 10.455,51.347 3.375,37.188C1.486,36.243 -0.404,35.302 -2.305,34.383C-8.938,30.965 -17.591,26.328 -20.469,19.055C-21.83,13.77 -22.437,8.279 -19.563,3.375C-13.691,-0.224 -6.656,-0.099 0,0ZM90.375,42.188L90.375,158.188C101.424,158.188 111.461,158.002 122.25,156.438C123.464,156.28 124.679,156.123 125.93,155.961C138.703,154.172 149.664,150.594 159.125,141.563C168.161,129.422 170.727,110.971 171.375,96.188C171.473,95.333 171.571,94.478 171.672,93.598C172.199,86.369 170.425,80.23 168.188,73.438C167.896,72.55 167.605,71.663 167.305,70.749C163.923,61.06 159.811,54.799 151.438,48.813C150.747,48.293 150.057,47.774 149.346,47.238C132.971,35.225 108.81,41.675 90.375,42.188Z" style="fill:rgb(211,116,57);fill-rule:nonzero;"/>
    </g>
    <g transform="matrix(1,0,0,1,952.559,1444.11)">
        <path d="M0,0C2.795,0.077 5.589,0.125 8.384,0.172C10.17,0.215 11.956,0.26 13.741,0.306C14.988,0.325 14.988,0.325 16.26,0.345C21.988,0.54 21.988,0.54 24.154,2.206C26.328,5.048 25.856,7.448 25.441,10.888C23.413,14.243 21.848,15.682 18.343,17.462C15.233,20.062 15.016,20.274 14.668,24.014C14.627,25.685 14.618,27.358 14.636,29.029C14.622,29.911 14.609,30.793 14.594,31.702C14.557,34.515 14.561,37.326 14.566,40.138C14.548,42.047 14.527,43.956 14.503,45.865C14.451,50.54 14.436,55.213 14.441,59.888C15.427,59.904 15.427,59.904 16.433,59.92C23.262,60.028 30.091,60.142 36.92,60.261C39.47,60.304 42.02,60.346 44.57,60.386C48.232,60.443 51.893,60.507 55.554,60.572C57.27,60.597 57.27,60.597 59.02,60.623C60.081,60.643 61.142,60.663 62.235,60.683C63.17,60.699 64.105,60.714 65.068,60.73C67.441,60.888 67.441,60.888 70.441,61.888L70.441,20.888C69.121,20.228 67.801,19.568 66.441,18.888C63.585,16.747 61.674,15.249 61.054,11.631C61.005,9.299 61.012,7.183 61.441,4.888C64.469,1.86 67.439,1.764 71.592,1.759C72.4,1.756 73.208,1.753 74.041,1.749C74.908,1.752 75.774,1.754 76.667,1.756C77.57,1.755 78.473,1.754 79.403,1.753C81.315,1.752 83.226,1.754 85.137,1.758C88.034,1.763 90.931,1.758 93.827,1.752C95.691,1.752 97.554,1.754 99.417,1.756C100.272,1.754 101.126,1.752 102.007,1.749C117.279,1.808 117.279,1.808 121.441,3.888C122.354,7.541 122.916,9.889 121.269,13.353C119.237,16.171 117.112,18.063 114.378,20.201C113.5,20.898 112.622,21.596 111.718,22.314C109.441,23.888 109.441,23.888 107.441,23.888C107.453,24.719 107.466,25.549 107.479,26.404C107.637,36.94 107.791,47.477 107.941,58.013C107.953,58.848 107.964,59.682 107.977,60.542C108.328,85.325 108.609,110.103 108.441,134.888C109.224,135.198 110.007,135.508 110.814,135.828C114.52,137.324 117.804,138.809 120.441,141.888C121.212,145.003 121.244,147.78 120.441,150.888C118.505,153.339 117.483,153.874 114.441,154.888C110.717,155.128 106.984,155.079 103.253,155.076C102.152,155.075 101.051,155.074 99.917,155.073C91.939,155.016 84.017,154.65 76.066,154.013C75.044,153.935 74.023,153.857 72.971,153.776C72.025,153.692 71.079,153.608 70.105,153.521C69.274,153.448 68.443,153.375 67.588,153.299C65.441,152.888 65.441,152.888 62.441,150.888C61.734,147.837 61.847,144.955 62.441,141.888C64.753,139.326 64.753,139.326 67.441,137.888L70.441,137.888L70.441,86.888L15.441,86.888L15.441,133.888C16.761,134.218 18.081,134.548 19.441,134.888C23.723,137.441 23.723,137.441 25.441,139.888C26.227,143.337 26.473,146.486 25.441,149.888C21.004,154.192 14.612,153.457 8.816,153.576C7.684,153.608 6.552,153.64 5.385,153.673C1.737,153.766 -1.91,153.831 -5.559,153.888C-6.812,153.91 -8.064,153.932 -9.354,153.955C-13.048,154.012 -16.741,154.049 -20.434,154.076C-22.162,154.096 -22.162,154.096 -23.925,154.116C-24.998,154.117 -26.071,154.118 -27.177,154.119C-28.594,154.125 -28.594,154.125 -30.039,154.131C-32.734,153.872 -34.336,153.428 -36.559,151.888C-37.612,148.169 -37.917,145.85 -36.559,142.201C-33.864,139.085 -31.261,137.706 -27.559,135.888L-25.559,135.888C-25.721,134.954 -25.882,134.02 -26.049,133.058C-26.751,128.107 -26.717,123.175 -26.729,118.183C-26.744,115.999 -26.758,113.815 -26.772,111.63C-26.778,110.48 -26.785,109.33 -26.791,108.145C-26.829,102.037 -26.901,95.928 -26.968,89.82C-27.052,82.055 -27.126,74.291 -27.156,66.526C-27.181,60.241 -27.245,53.958 -27.335,47.673C-27.362,45.28 -27.375,42.888 -27.374,40.495C-27.374,37.15 -27.423,33.809 -27.483,30.464C-27.466,28.984 -27.466,28.984 -27.448,27.474C-27.547,22.241 -27.547,22.241 -30.37,18.048C-32.505,16.464 -32.505,16.464 -34.731,15.232C-37.019,13.551 -37.318,12.534 -37.747,9.763C-37.548,5.653 -37.443,4.651 -34.559,1.888C-23.548,-1.131 -11.305,-0.325 0,0Z" style="fill:rgb(210,116,57);fill-rule:nonzero;"/>
    </g>
    <g transform="matrix(1,0,0,1,1221.44,1445.81)">
        <path d="M0,0C0.743,0.057 1.485,0.114 2.251,0.172C4.309,0.395 4.309,0.395 7.563,1.188C9.888,4.439 9.808,7.474 9.793,11.379C9.791,12.571 9.789,13.762 9.787,14.99C9.775,16.231 9.763,17.472 9.75,18.75C9.749,20.617 9.749,20.617 9.748,22.521C9.703,31.766 9.703,31.766 8.563,35.188C5.497,36.72 2.865,36.823 -0.438,36.188C-3.266,34.875 -5.915,33.388 -8.594,31.793C-14.24,28.605 -19.303,26.799 -25.75,26.063C-26.424,25.985 -27.097,25.907 -27.791,25.827C-35.981,24.933 -44.21,24.549 -52.438,24.188C-52.432,25.09 -52.427,25.992 -52.422,26.922C-52.405,30.297 -52.392,33.672 -52.383,37.048C-52.378,38.503 -52.371,39.959 -52.362,41.415C-52.35,43.517 -52.344,45.62 -52.34,47.723C-52.335,48.985 -52.329,50.247 -52.324,51.547C-52.437,55.164 -52.856,58.618 -53.438,62.188C-49.815,62.476 -46.19,62.711 -42.563,62.938C-41.043,63.059 -41.043,63.059 -39.492,63.184C-32.481,63.588 -26.517,62.959 -20.438,59.188C-19.913,58.481 -19.389,57.774 -18.848,57.046C-18.15,56.126 -18.15,56.126 -17.438,55.188L-14.438,55.188L-14.438,53.188C-8.813,52.063 -8.813,52.063 -5.438,53.188C-4.729,56.966 -4.38,59.774 -4.914,63.609C-5.886,70.68 -5.44,77.867 -5.311,84.984C-5.3,86.108 -5.289,87.233 -5.277,88.391C-5.261,89.408 -5.244,90.425 -5.226,91.474C-5.445,94.286 -5.821,95.884 -7.438,98.188C-10.688,99.188 -10.688,99.188 -14.438,99.188C-17.313,97.625 -17.313,97.625 -20.438,95.188C-31.839,86.685 -39.351,87.13 -54.438,86.188L-54.438,128.188C-37.392,131.597 -20.088,130.483 -5.188,121.152C-2.276,119.072 0.107,116.783 2.563,114.188C3.563,113.188 3.563,113.188 5.41,113.09C7.461,113.122 9.512,113.155 11.563,113.188C15.752,120.624 13.335,131.332 12.75,139.563C12.68,140.737 12.609,141.911 12.537,143.121C12.457,144.244 12.376,145.367 12.293,146.523C12.225,147.54 12.157,148.556 12.087,149.603C11.493,152.531 11.037,153.537 8.563,155.188C6.371,155.56 6.371,155.56 3.785,155.551C2.814,155.552 1.842,155.552 0.841,155.553C-0.751,155.527 -0.751,155.527 -2.375,155.5C-3.503,155.491 -4.63,155.482 -5.792,155.472C-14.537,155.347 -23.193,154.714 -31.903,153.97C-47.942,152.735 -64.051,152.769 -80.13,152.617C-82.428,152.589 -84.726,152.56 -87.023,152.531C-88.085,152.526 -89.146,152.521 -90.24,152.515C-95.357,152.446 -99.651,152.236 -104.438,150.188C-105.844,142.408 -105.844,142.408 -104.563,138.563C-101.892,135.578 -98.805,133.609 -95.398,131.52C-90.908,126.179 -92.292,116.396 -92.321,109.658C-92.321,108.764 -92.32,107.87 -92.32,106.949C-92.323,104.027 -92.334,101.105 -92.348,98.184C-92.352,97.178 -92.357,96.172 -92.361,95.136C-92.387,89.822 -92.421,84.508 -92.46,79.194C-92.49,74.813 -92.504,70.432 -92.503,66.051C-92.501,60.735 -92.529,55.42 -92.577,50.105C-92.591,48.089 -92.594,46.073 -92.587,44.057C-92.316,29.468 -92.316,29.468 -99.438,17.188L-99.438,15.188C-100.077,15.023 -100.716,14.858 -101.375,14.688C-103.438,13.188 -103.438,13.188 -103.961,11.379C-104.44,7.849 -104.583,5.623 -103.438,2.188C-99.796,0.258 -96.561,-0.104 -92.483,-0.239C-90.713,-0.304 -90.713,-0.304 -88.907,-0.37C-87.633,-0.406 -86.359,-0.443 -85.047,-0.48C-83.701,-0.524 -82.356,-0.569 -81.011,-0.614C-78.18,-0.706 -75.348,-0.792 -72.517,-0.873C-68.968,-0.975 -65.42,-1.093 -61.872,-1.216C-41.178,-1.923 -20.646,-1.741 0,0Z" style="fill:rgb(211,116,57);fill-rule:nonzero;"/>
    </g>
    <g transform="matrix(1,0,0,1,747.653,1440.8)">
        <path d="M0,0C0.956,0.006 1.912,0.011 2.897,0.017C3.944,0.034 4.991,0.05 6.07,0.067C7.174,0.077 8.279,0.086 9.417,0.096C13.081,0.13 16.746,0.178 20.41,0.226C22.958,0.252 25.505,0.277 28.053,0.302C34.089,0.362 40.125,0.431 46.161,0.504C53.656,0.594 61.152,0.672 68.648,0.749C76.314,0.829 83.979,0.91 91.645,0.999C93.405,1.019 93.405,1.019 95.2,1.04C97.372,1.065 99.543,1.091 101.714,1.117C102.692,1.128 103.671,1.139 104.679,1.151C105.615,1.162 106.551,1.173 107.516,1.185C111.365,1.209 115.213,1.165 119.062,1.109C121.347,1.203 121.347,1.203 124.347,2.203L124.347,5.203L126.347,5.203C128.571,12.371 128.68,19.169 128.66,26.64C128.676,27.816 128.692,28.993 128.709,30.204C128.712,36.788 128.626,43.307 125.347,49.203C121.597,51.703 119.789,51.739 115.347,51.203C112.346,48.829 110.54,46.514 108.535,43.265C105.26,38.681 102.082,35.021 96.35,33.765C92.572,33.177 88.791,32.822 84.98,32.527C81.347,32.203 81.347,32.203 79.347,31.203C79.353,31.764 79.358,32.326 79.363,32.905C79.442,42.772 79.459,52.601 78.847,62.453C77.729,82.037 77.378,101.94 79.597,121.453C79.707,122.463 79.816,123.473 79.928,124.514C80.65,129.998 81.61,133.902 85.347,138.203C87.391,139.634 87.391,139.634 89.535,140.578C91.895,141.941 93.097,142.648 94.226,145.152C94.831,148.595 94.704,150.681 92.722,153.578C87.534,157.127 82.878,157.51 76.707,157.503C75.446,157.51 75.446,157.51 74.16,157.516C72.378,157.522 70.596,157.523 68.814,157.518C66.148,157.515 63.482,157.538 60.816,157.564C52.389,157.596 44.182,157.298 35.863,155.871C35.174,155.754 34.485,155.638 33.776,155.518C29.772,154.744 26.646,153.615 23.347,151.203C21.826,147.703 22.134,144.775 23.347,141.203C25.681,138.717 28.084,136.614 30.702,134.448C37.732,128.475 40.119,121.563 40.949,112.496C41.354,106.81 41.539,101.152 41.535,95.453C41.536,94.409 41.536,93.366 41.537,92.291C41.415,72.253 40.267,52.216 39.347,32.203C36.136,32.051 32.925,31.959 29.711,31.878C28.805,31.835 27.9,31.791 26.968,31.747C22.522,31.663 19.384,31.611 15.933,34.627C13.545,37.378 11.447,40.229 9.347,43.203C5.159,47.193 1.191,48.978 -4.653,49.203C-5.643,48.873 -6.633,48.543 -7.653,48.203L-7.653,45.203L-9.653,45.203C-12.837,35.649 -10.442,23.708 -9.34,13.89C-9.222,12.774 -9.105,11.658 -8.984,10.509C-8.858,9.463 -8.732,8.417 -8.602,7.339C-8.492,6.398 -8.382,5.456 -8.269,4.486C-7.082,0.087 -3.969,-0.044 0,0Z" style="fill:rgb(211,116,57);fill-rule:nonzero;"/>
    </g>
    <g id="Flame" transform="matrix(1,0,0,1,927,62)">
        <path d="M0,0C8.331,-0.819 13.017,1.639 20,6C20.875,6.507 21.751,7.013 22.652,7.535C30.195,12.043 36.623,17.614 43.184,23.406C45.589,25.517 48.024,27.59 50.46,29.664C55.924,34.315 61.293,39.051 66.598,43.883C69.042,46.037 71.566,48.047 74.125,50.063C79.13,54.112 83.699,58.512 88.25,63.063C88.911,63.723 89.573,64.384 90.254,65.065C94.694,69.554 98.89,74.21 103,79C103.452,79.519 103.904,80.039 104.369,80.574C111.721,89.03 118.618,97.797 125.33,106.768C126.443,108.256 127.561,109.742 128.682,111.225C136.329,121.361 142.981,131.672 148.893,142.91C149.921,144.85 150.975,146.773 152.043,148.691C167.391,176.427 173.819,202.704 177.723,233.841C177.992,235.938 178.285,238.03 178.58,240.124C180.268,252.735 180.305,265.312 180.261,278.02C180.25,281.664 180.261,285.307 180.273,288.951C180.286,308.053 179.647,327.166 175.813,345.938C175.492,347.543 175.492,347.543 175.165,349.18C169.371,377.144 158.647,402.196 146.11,427.699C143.777,432.449 141.464,437.209 139.152,441.969C120.498,480.358 120.498,480.358 112.238,496.129C111.01,498.483 109.781,500.837 108.553,503.191C107.724,504.776 106.892,506.358 106.055,507.939C92.098,534.361 86.017,560.492 93,590C93.156,590.676 93.311,591.351 93.472,592.047C97.487,608.873 104.853,625.684 116,639C116.77,639.975 117.539,640.949 118.332,641.953C121.03,645.174 124.059,647.748 127.375,650.313C127.982,650.783 128.589,651.254 129.215,651.739C147.45,665.597 168.761,675.953 192.211,673.633C210.019,670.659 224.375,662.774 237,650C237.668,649.343 238.335,648.685 239.023,648.008C255.95,630.162 264.457,600.226 264,576C262.836,548.341 255.98,521.237 248.375,494.75C237.977,458.317 227.867,410.136 239,373C239.266,372.08 239.531,371.159 239.805,370.211C246.297,351.229 263.386,338.24 279,327C279.62,326.551 280.24,326.102 280.878,325.639C284.348,323.127 287.836,320.644 291.338,318.179C292.97,317.022 294.585,315.841 296.199,314.66C318.265,298.783 318.265,298.783 330.188,298.938C331.089,298.947 331.99,298.956 332.918,298.965C333.949,298.982 333.949,298.982 335,299C336.449,306.245 336.449,306.245 334.625,309.313C332.195,310.874 330.351,311.599 327.625,312.438C319.148,315.097 315.759,320.195 311.613,327.789C303.069,344.794 304.193,364.159 310,382C316.77,401.079 327.008,418.109 338,435C338.447,435.687 338.893,436.373 339.354,437.081C353.277,458.394 368.864,478.327 385,498C386.604,499.958 388.208,501.917 389.813,503.875C390.52,504.737 391.228,505.6 391.957,506.488C393.996,508.995 395.999,511.526 398,514.063C402.127,519.235 406.536,524.118 411,529C415.757,534.26 420.487,539.539 425.137,544.895C427.302,547.342 429.528,549.729 431.75,552.125C437.531,558.475 442.81,565.163 448,572C448.683,572.897 448.683,572.897 449.379,573.813C456.756,583.558 463.532,593.632 470,604C470.427,604.678 470.853,605.355 471.293,606.053C506.157,661.769 515.279,731.194 500.755,794.834C492.944,827.593 481,857.14 464.855,886.586C463.011,889.98 461.203,893.392 459.406,896.813C445.437,923.342 426.631,955.913 401,973C435.836,972.837 469.962,949.196 495,927C495.818,926.277 495.818,926.277 496.653,925.539C519.162,905.514 537.183,881.495 551.779,855.196C552.875,853.224 553.991,851.266 555.113,849.309C564.196,833.192 570.826,815.662 576.351,798.043C577.525,794.348 578.765,790.675 580,787C588.625,785.875 588.625,785.875 592,787C593.259,789.456 594.311,791.815 595.313,794.375C595.616,795.137 595.919,795.898 596.232,796.683C625.177,870.745 614.163,953.685 583.291,1025.37C581.878,1028.59 580.446,1031.8 579,1035C578.527,1036.05 578.054,1037.1 577.566,1038.18C559.923,1076.91 536.008,1112.98 508,1145C507.37,1145.73 506.739,1146.46 506.09,1147.21C504.406,1149.15 502.704,1151.08 501,1153C500.393,1153.69 499.786,1154.38 499.161,1155.1C493.221,1161.8 486.992,1168.16 480.652,1174.48C478.933,1176.19 477.219,1177.91 475.506,1179.63C469.84,1185.3 464.136,1190.83 458,1196C456.99,1196.88 455.981,1197.75 454.973,1198.63C405.779,1240.76 347.888,1273.69 285,1290C284.098,1290.23 283.196,1290.47 282.267,1290.71C257.313,1297.05 231.983,1300.2 206.25,1300.12C204.885,1300.13 203.521,1300.13 202.156,1300.14C200.23,1300.13 200.23,1300.13 198.266,1300.13C196.53,1300.13 196.53,1300.13 194.759,1300.13C192,1300 192,1300 190,1299C189.063,1297.25 189.063,1297.25 189,1295C190.591,1293.08 192.126,1291.63 194,1290C194.718,1289.34 195.436,1288.68 196.176,1288C200.523,1284.01 204.961,1280.19 209.563,1276.5C216.786,1270.64 223.159,1264.13 229.203,1257.07C231.175,1254.8 233.211,1252.59 235.25,1250.38C240.275,1244.8 244.862,1238.93 249.446,1233C251.101,1230.87 252.779,1228.77 254.461,1226.66C264.791,1213.69 273.61,1200.45 280.809,1185.5C282.43,1182.13 284.123,1178.81 285.848,1175.5C298.237,1151.58 305.659,1128.5 310,1102C310.205,1100.77 310.41,1099.53 310.621,1098.26C319.123,1046.62 310.626,989.155 285.015,942.862C279.546,932.825 274.72,922.414 269.75,912.125C268.989,910.556 268.989,910.556 268.212,908.956C265.217,902.726 262.467,896.457 260,890C259.986,891.024 259.972,892.047 259.957,893.102C258.501,946.898 241.75,990.271 203,1027C200.366,1029.37 197.69,1031.69 195,1034C194.073,1034.82 193.146,1035.64 192.191,1036.48C180.083,1046.92 160.685,1063.43 144,1063.5C142.665,1063.35 141.331,1063.18 140,1063C138.89,1057.06 139.15,1053.24 141.59,1047.66C142.159,1046.25 142.722,1044.84 143.281,1043.43C143.569,1042.71 143.858,1041.98 144.155,1041.23C146.714,1034.47 148.574,1027.44 150.563,1020.5C150.919,1019.26 150.919,1019.26 151.283,1018C156.779,998.898 162.026,979.582 162.238,959.582C162.248,958.811 162.258,958.041 162.269,957.247C162.442,940.389 162.215,924.412 158,908C157.657,906.621 157.315,905.242 156.974,903.863C146.762,862.741 135.396,825.429 110.295,790.807C108.647,788.508 107.077,786.16 105.5,783.813C98.989,774.507 91.253,766.093 83.129,758.188C80.019,754.992 77.308,751.509 74.523,748.031C71.59,744.508 68.509,741.157 65.375,737.813C64.808,737.208 64.241,736.603 63.657,735.979C63.108,735.393 62.558,734.807 61.992,734.203C59.237,731.263 56.545,728.278 53.918,725.223C52.331,723.383 50.727,721.562 49.113,719.746C38.683,707.949 29.205,695.691 20.688,682.438C20.22,681.719 19.753,681.001 19.271,680.261C11.871,668.49 7.032,656.139 3.364,642.794C2.75,640.563 2.115,638.339 1.477,636.115C-0.792,628.098 -2.694,620.101 -4.087,611.883C-4.419,608.662 -4.419,608.662 -6,606C-9.363,615.657 -12.695,625.323 -16,635C-16.422,636.226 -16.422,636.226 -16.852,637.477C-20.012,646.74 -22.364,656.186 -24.688,665.688C-24.986,666.9 -25.284,668.112 -25.591,669.361C-37.09,717.414 -26.66,771.351 -14.688,818.598C-11.322,831.924 -8.7,845.364 -6.188,858.875C-5.999,859.887 -5.81,860.898 -5.615,861.94C-4.539,867.727 -3.491,873.519 -2.474,879.317C-2.166,881.058 -1.854,882.798 -1.534,884.538C0.671,896.576 1.495,908.204 1.375,920.438C1.37,921.288 1.366,922.138 1.361,923.014C1.206,947.206 -2.513,969.943 -13,992C-13.489,993.053 -13.977,994.106 -14.48,995.191C-22.662,1011.65 -35.544,1023.02 -53,1029C-60.222,1030.82 -69.485,1031.64 -76.375,1028.44C-78.215,1027.31 -78.215,1027.31 -80,1026C-80.641,1025.55 -81.281,1025.1 -81.941,1024.63C-96.81,1012.94 -103.492,993.661 -106.578,975.621C-107.073,971.369 -107.324,967.151 -107.5,962.875C-107.541,961.926 -107.583,960.978 -107.625,960C-107.915,952.753 -108.08,945.506 -108.215,938.254C-108.243,936.809 -108.243,936.809 -108.271,935.335C-108.365,930.481 -108.45,925.626 -108.52,920.771C-108.68,911.182 -109.072,901.654 -109.91,892.098C-109.986,891.202 -110.063,890.307 -110.141,889.384C-110.646,884.08 -111.579,879.136 -113,874C-113.29,874.732 -113.58,875.464 -113.879,876.218C-120.452,892.691 -127.571,908.65 -135.676,924.43C-139.307,931.534 -142.681,938.747 -146,946C-146.359,946.783 -146.718,947.567 -147.089,948.374C-149.522,953.688 -151.929,959.014 -154.316,964.35C-155.143,966.192 -155.976,968.031 -156.814,969.868C-165.798,989.571 -171.499,1008.72 -173.875,1030.25C-173.977,1031.14 -174.08,1032.03 -174.185,1032.94C-181.028,1092.61 -168.866,1152.96 -135,1203C-134.341,1203.99 -134.341,1203.99 -133.669,1205C-114.217,1234.09 -88.114,1258.02 -59.703,1278.07C-57,1280 -57,1280 -56,1281C-55.537,1286.33 -55.537,1286.33 -57.25,1288.81C-68.458,1296.42 -94.757,1290.21 -107.191,1287.88C-175.036,1274.34 -234.977,1246.61 -289,1203C-289.919,1202.26 -290.838,1201.53 -291.785,1200.77C-305.022,1190.07 -317.677,1178.74 -330,1167C-330.793,1166.25 -331.586,1165.5 -332.402,1164.73C-337.749,1159.54 -342.345,1153.81 -347,1148C-348.52,1146.17 -350.041,1144.33 -351.563,1142.5C-355.046,1138.24 -358.309,1133.88 -361.512,1129.4C-364.872,1124.76 -368.39,1120.24 -371.875,1115.69C-377.257,1108.65 -382.534,1101.57 -387.637,1094.33C-389.781,1091.29 -391.984,1088.3 -394.196,1085.31C-398.627,1079.32 -402.925,1073.28 -406.996,1067.04C-408.369,1064.96 -409.78,1062.9 -411.223,1060.87C-443.624,1014.98 -454.878,959.971 -459.125,905C-459.214,903.85 -459.304,902.699 -459.396,901.514C-460.792,883.282 -461.593,865.283 -461,847C-460.978,846.076 -460.956,845.152 -460.933,844.2C-460.79,838.45 -460.478,832.732 -460,827C-459.924,826.088 -459.849,825.175 -459.771,824.235C-458.258,807.202 -454.762,790.829 -450.769,774.242C-450.092,771.387 -449.459,768.526 -448.848,765.656C-448,762 -448,762 -447,761C-445.481,760.928 -443.958,760.916 -442.438,760.938C-441.611,760.947 -440.785,760.956 -439.934,760.965C-439.296,760.976 -438.657,760.988 -438,761C-437.935,761.591 -437.871,762.182 -437.804,762.791C-435.048,787.455 -430.675,811.366 -423,835C-422.724,835.852 -422.449,836.703 -422.165,837.581C-416.773,853.906 -409.691,870.182 -398,883C-397.304,883.79 -396.608,884.58 -395.891,885.395C-394.407,887.065 -392.911,888.723 -391.402,890.371C-389.73,892.201 -388.078,894.049 -386.441,895.91C-374.631,909.278 -360.893,919.272 -346,929C-345.38,929.41 -344.759,929.819 -344.12,930.241C-321.91,944.767 -285.465,965 -258,965C-259.238,964.072 -259.238,964.072 -260.5,963.125C-261.325,962.424 -262.15,961.723 -263,961L-263,959L-265,959C-266.375,957.672 -266.375,957.672 -268,955.75C-268.623,955.017 -269.245,954.283 -269.887,953.527C-270.584,952.693 -271.281,951.859 -272,951C-272.77,950.094 -273.539,949.188 -274.332,948.254C-279.471,942.16 -284.414,935.945 -289.242,929.602C-291.245,926.974 -293.276,924.369 -295.32,921.773C-298.914,917.208 -302.471,912.616 -306,908C-306.794,906.964 -306.794,906.964 -307.604,905.907C-321.553,887.504 -330.902,867.172 -338.717,845.535C-339.835,842.456 -340.975,839.388 -342.127,836.321C-350.82,813.109 -357.147,789.68 -360,765C-360.103,764.155 -360.206,763.309 -360.312,762.438C-366.099,712.829 -361.291,663.92 -346.091,616.467C-344.955,612.858 -343.873,609.237 -342.801,605.609C-338.512,591.186 -333.758,577.454 -327,564C-326.612,563.22 -326.225,562.441 -325.825,561.638C-313.893,537.823 -299.466,515.898 -283,495C-282.336,494.153 -281.672,493.306 -280.988,492.434C-279.013,489.938 -277.014,487.465 -275,485C-274.576,484.479 -274.151,483.957 -273.714,483.42C-257.224,463.239 -257.224,463.239 -246.926,461.688C-243.491,461.484 -241.354,461.776 -238.438,463.625C-237,466 -237,466 -237.25,469.25C-237.498,470.158 -237.745,471.065 -238,472L-240,472C-240.043,472.598 -240.086,473.195 -240.131,473.811C-240.901,483.332 -242.394,492.737 -243.843,502.173C-247.671,527.187 -250.444,555.459 -244.595,580.381C-243.983,583.073 -243.434,585.774 -242.894,588.481C-235.737,624.291 -222.44,664.678 -190.68,686.316C-182.748,691.3 -173.598,696.345 -163.859,694.621C-156.373,691.773 -151.818,684.675 -148,678C-137.129,649.528 -148.91,613.088 -158.675,586.101C-165.389,567.525 -171.096,548.582 -174,529C-174.13,528.13 -174.26,527.26 -174.395,526.363C-178.518,491.337 -171.288,457.367 -155.195,426.321C-153.883,423.773 -152.598,421.211 -151.313,418.648C-141.748,399.752 -130.579,382.026 -118,365C-116.898,363.496 -115.797,361.992 -114.695,360.488C-111.718,356.428 -108.727,352.38 -105.729,348.335C-104.1,346.135 -102.479,343.929 -100.859,341.723C-95.669,334.685 -90.314,327.884 -84.572,321.288C-76.051,311.498 -68.001,301.317 -60.025,291.08C-56.921,287.117 -53.712,283.261 -50.438,279.438C-46.024,274.277 -41.829,268.979 -37.727,263.566C-35.734,260.942 -33.701,258.355 -31.648,255.777C-23.786,245.875 -16.64,235.758 -10,225C-9.631,224.413 -9.263,223.826 -8.883,223.221C7.295,197.448 22.602,169.672 30,140C30.315,138.757 30.629,137.515 30.953,136.234C38.444,102.893 36.79,63.697 18.388,34.103C14.638,28.422 10.398,23.185 6,18C4.906,16.616 4.906,16.616 3.789,15.203C2.138,13.004 2.138,13.004 0.25,11.625C-1.822,8.931 -1.234,6.27 -1,3C-0.67,2.01 -0.34,1.02 0,0Z" style="fill:rgb(211,116,57);fill-rule:nonzero;"/>
    </g>
</svg>
